<!--?xml version="1.0" encoding="iso-8859-1"?-->
<!-- Generator: Adobe Illustrator 19.0.0, SVG Export Plug-In . SVG Version: 6.00 Build 0)  -->
<svg version="1.1" id="Layer_1" xmlns="http://www.w3.org/2000/svg" xmlns:xlink="http://www.w3.org/1999/xlink" x="0px" y="0px" viewBox="0 0 488 488" style="" xml:space="preserve">
<path style="fill:#B5BABA;" d="M83.2,76c4.8,0,8.8,4,8.8,8.8v2.4c0,4.8-4,8.8-8.8,8.8H60c-4.8,0-8.8-4-8.8-8.8v-2.4
	c0-4.8,4-8.8,8.8-8.8H83.2z" class="mQGPXvHZ_0"></path>
<path style="fill:#9FA5A5;" d="M60,76h23.2c4.8,0,8.8,4,8.8,8.8v2.4c0,4.8-4,8.8-8.8,8.8H60" class="mQGPXvHZ_1"></path>
<path style="fill:#B5BABA;" d="M228,76c4.8,0,8.8,4,8.8,8.8v2.4c0,4.8-4,8.8-8.8,8.8h-23.2c-4.8,0-8.8-4-8.8-8.8v-2.4
	c0-4.8,4-8.8,8.8-8.8H228z" class="mQGPXvHZ_2"></path>
<path style="fill:#9FA5A5;" d="M204.8,76H228c4.8,0,8.8,4,8.8,8.8v2.4c0,4.8-4,8.8-8.8,8.8h-23.2" class="mQGPXvHZ_3"></path>
<path style="fill:#B5BABA;" d="M276,76c4.8,0,8.8,4,8.8,8.8v2.4c0,4.8-4,8.8-8.8,8.8h-23.2c-4.8,0-8.8-4-8.8-8.8v-2.4
	c0-4.8,4-8.8,8.8-8.8H276z" class="mQGPXvHZ_4"></path>
<path style="fill:#9FA5A5;" d="M252.8,76H276c4.8,0,8.8,4,8.8,8.8v2.4c0,4.8-4,8.8-8.8,8.8h-23.2" class="mQGPXvHZ_5"></path>
<path style="fill:#B5BABA;" d="M324,76c4.8,0,8.8,4,8.8,8.8v2.4c0,4.8-4,8.8-8.8,8.8h-24c-4.8,0-8.8-4-8.8-8.8v-2.4
	c0-4.8,4-8.8,8.8-8.8H324z" class="mQGPXvHZ_6"></path>
<path style="fill:#9FA5A5;" d="M300,76h24c4.8,0,8.8,4,8.8,8.8v2.4c0,4.8-4,8.8-8.8,8.8h-24" class="mQGPXvHZ_7"></path>
<path style="fill:#1DD868;" d="M488,373.6c0,8.8-7.2,16-16,16H16c-8.8,0-16-7.2-16-16V99.2c0-8.8,7.2-16,16-16h456
	c8.8,0,16,7.2,16,16V373.6z" class="mQGPXvHZ_8"></path>
<path style="fill:#13AA50;" d="M488,396c0,8.8-7.2,16-16,16H16c-8.8,0-16-7.2-16-16V121.6c0-8.8,7.2-16,16-16h456
	c8.8,0,16,7.2,16,16V396z" class="mQGPXvHZ_9"></path>
<path style="fill:#0D915E;" d="M488,396c0,8.8-7.2,16-16,16H16c-8.8,0-16-7.2-16-16V121.6c0-8.8,7.2-16,16-16h456
	c8.8,0,16,7.2,16,16V396z" class="mQGPXvHZ_10"></path>
<path style="fill:#26BF64;" d="M488,380c0,8.8-7.2,16-16,16H16c-8.8,0-16-7.2-16-16V105.6c0-8.8,7.2-16,16-16h456
	c8.8,0,16,7.2,16,16V380z" class="mQGPXvHZ_11"></path>
<path style="fill:#14A862;" d="M0,105.6c0-8.8,7.2-16,16-16h456c8.8,0,16,7.2,16,16V380c0,8.8-7.2,16-16,16" class="mQGPXvHZ_12"></path>
<path style="fill:#0D915E;" d="M471.2,392c0,8.8-7.2,15.2-15.2,15.2h-79.2c-8.8,0-15.2-7.2-15.2-15.2V144c0-8.8,7.2-15.2,15.2-15.2
	H456c8.8,0,15.2,7.2,15.2,15.2V392z" class="mQGPXvHZ_13"></path>
<path style="fill:#13AA50;" d="M480,260.8c0,3.2-2.4,5.6-5.6,5.6H359.2c-3.2,0-5.6-2.4-5.6-5.6v-9.6c0-3.2,2.4-5.6,5.6-5.6h115.2
	c3.2,0,5.6,2.4,5.6,5.6L480,260.8L480,260.8z" class="mQGPXvHZ_14"></path>
<path style="fill:#0D915E;" width="40" height="208.8" d="M28.8 189.6 L68.8 189.6 L68.8 398.4 L28.8 398.4 Z" class="mQGPXvHZ_15"></path>
<path style="fill:#121C1B;" d="M68.8,187.2L68.8,187.2c0.8-1.6,1.6-3.2,0.8-4.8l-2.4-2.4c-0.8-1.6-2.4-2.4-4-1.6l0,0
	c0.8-1.6,0-3.2-1.6-4l-3.2-2.4c-1.6-0.8-3.2-0.8-4,0.8l0,0c0-1.6-1.6-2.4-3.2-2.4h-4.8c-1.6,0-3.2,0.8-3.2,2.4l0,0
	c-1.6-0.8-3.2-1.6-4.8-0.8l-3.2,1.6c-1.6,0.8-1.6,2.4-1.6,4l0,0c-1.6-0.8-3.2,0-4,1.6l-1.6,4c-0.8,1.6-0.8,3.2,0.8,4l0,0
	c-1.6,0-2.4,1.6-2.4,3.2v4c0,1.6,0.8,3.2,2.4,3.2l0,0c-0.8,0.8-1.6,3.2-0.8,4l1.6,3.2c0.8,1.6,2.4,1.6,4,1.6l0,0
	c-0.8,1.6,0,3.2,1.6,4l3.2,1.6c1.6,0.8,3.2,0.8,4-0.8l0,0c0,1.6,1.6,2.4,3.2,2.4h4c1.6,0,3.2-0.8,3.2-2.4l0,0c0.8,0.8,3.2,1.6,4,0.8
	l3.2-1.6c1.6-0.8,2.4-2.4,1.6-4l0,0c1.6,0.8,3.2,0,4-1.6l1.6-3.2c0.8-1.6,0.8-3.2-0.8-4l0,0c1.6,0,2.4-1.6,2.4-3.2v-4
	C71.2,189.6,69.6,188,68.8,187.2z" class="mQGPXvHZ_16"></path>
<path style="fill:#5D6466;" d="M68.8,185.6L68.8,185.6c0.8-1.6,1.6-3.2,0.8-4.8l-1.6-3.2c-0.8-1.6-2.4-2.4-4-1.6l0,0
	c0.8-1.6,0-3.2-1.6-4l-3.2-1.6c-1.6-0.8-3.2-0.8-4,0.8l0,0c0-1.6-1.6-2.4-3.2-2.4h-5.6c-1.6,0-3.2,0.8-3.2,2.4l0,0
	c-0.8-0.8-3.2-1.6-4-0.8L36,172c-1.6,0.8-1.6,2.4-1.6,4l0,0c-1.6-0.8-3.2,0-4,1.6l-2.4,4c-0.8,1.6-0.8,3.2,0.8,4l0,0
	c-1.6,0-2.4,1.6-2.4,3.2v4c0,1.6,0.8,3.2,2.4,3.2l0,0c-0.8,0.8-1.6,3.2-0.8,4l1.6,4c0.8,1.6,2.4,2.4,4,1.6l0,0c-0.8,1.6,0,3.2,1.6,4
	l3.2,2.4c1.6,0.8,3.2,0.8,4-0.8l0,0c0,1.6,1.6,2.4,3.2,2.4h4c1.6,0,3.2-0.8,3.2-2.4l0,0c2.4,0.8,4,1.6,5.6,0.8l3.2-1.6
	c1.6-0.8,2.4-2.4,1.6-4l0,0c1.6,0.8,3.2,0,4-1.6l1.6-3.2c0.8-1.6,0.8-3.2-0.8-4l0,0c1.6,0,2.4-1.6,2.4-3.2v-4
	C71.2,188,69.6,186.4,68.8,185.6z" class="mQGPXvHZ_17"></path>
<path style="fill:#4B5556;" d="M68.8,185.6L68.8,185.6c0.8-1.6,1.6-3.2,0.8-4.8l-1.6-3.2c-0.8-1.6-2.4-2.4-4-1.6l0,0
	c0.8-1.6,0-3.2-1.6-4l-3.2-1.6c-1.6-0.8-3.2-0.8-4,0.8l0,0c0-1.6-1.6-2.4-3.2-2.4h-5.6c-1.6,0-3.2,0.8-3.2,2.4l0,0
	c-0.8-0.8-3.2-1.6-4-0.8L36,172c-1.6,0.8-1.6,2.4-1.6,4l0,0L64,205.6l0,0c1.6,0.8,3.2,0,4-1.6l1.6-3.2c0.8-1.6,0.8-3.2-0.8-4l0,0
	c1.6,0,2.4-1.6,2.4-3.2v-4C71.2,188,69.6,186.4,68.8,185.6z" class="mQGPXvHZ_18"></path>
<path style="fill:#566366;" d="M48.8,179.2c7.2,0,12.8,5.6,12.8,12v-0.8c0-7.2-5.6-12.8-12.8-12.8S36,183.2,36,190.4v0.8
	C36,184,41.6,179.2,48.8,179.2z" class="mQGPXvHZ_19"></path>
<path style="fill:#424B4C;" d="M48.8,178.4c-7.2,0-12.8,5.6-12.8,12.8c0,4,2.4,13.6,5.6,20.8c0.8,0,1.6,0,2.4-0.8l0,0
	c0,1.6,1.6,2.4,3.2,2.4h4c1.6,0,3.2-0.8,3.2-2.4l0,0c0,0.8,0.8,0.8,2.4,0.8c3.2-7.2,4.8-16.8,4.8-20.8C61.6,184,56,178.4,48.8,178.4
	z" class="mQGPXvHZ_20"></path>
<path style="fill:#121C1B;" d="M61.6,191.2c0,7.2-5.6,12.8-12.8,12.8S36,198.4,36,191.2s5.6-12.8,12.8-12.8S61.6,184,61.6,191.2z" class="mQGPXvHZ_21"></path>
<path style="fill:#283538;" d="M39.2,200.8c-4.8-4.8-4.8-13.6,0-18.4c4.8-4.8,13.6-4.8,18.4,0" class="mQGPXvHZ_22"></path>
<path style="fill:#121C1B;" d="M49.6,185.6c0,0.8,0,0.8-0.8,0.8l0,0c-0.8,0-0.8,0-0.8-0.8v-3.2c0-0.8,0-0.8,0.8-0.8l0,0
	c0.8,0,0.8,0,0.8,0.8V185.6z" class="mQGPXvHZ_23"></path>
<path style="fill:#FF7A17;" d="M49.6,184c0,0.8,0,0.8-0.8,0.8l0,0c-0.8,0-0.8,0-0.8-0.8v-3.2c0-0.8,0-0.8,0.8-0.8l0,0
	c0.8,0,0.8,0,0.8,0.8V184z" class="mQGPXvHZ_24"></path>
<path style="fill:#0D915E;" width="40" height="208.8" d="M96.8 189.6 L136.8 189.6 L136.8 398.4 L96.8 398.4 Z" class="mQGPXvHZ_25"></path>
<path style="fill:#121C1B;" d="M136.8,187.2L136.8,187.2c0.8-1.6,1.6-3.2,0.8-4.8L136,180c-0.8-1.6-2.4-2.4-4-1.6l0,0
	c0.8-1.6,0-3.2-1.6-4l-3.2-2.4c-1.6-0.8-3.2-0.8-4,0.8l0,0c0-1.6-1.6-2.4-3.2-2.4h-4c-1.6,0-3.2,0.8-3.2,2.4l0,0
	c-0.8-0.8-3.2-1.6-4-0.8l-3.2,1.6c-1.6,0.8-1.6,2.4-1.6,4l0,0c-1.6-0.8-3.2,0-4,1.6l-1.6,3.2c-0.8,1.6-0.8,3.2,0.8,4l0,0
	c-1.6,0-2.4,1.6-2.4,3.2v4c0,1.6,0.8,3.2,2.4,3.2l0,0c-0.8,0.8-1.6,3.2-0.8,4l1.6,3.2c0.8,1.6,2.4,1.6,4,1.6l0,0
	c-0.8,1.6,0,3.2,1.6,4l3.2,1.6c1.6,0.8,3.2,0.8,4-0.8l0,0c0,1.6,1.6,2.4,3.2,2.4h4c1.6,0,3.2-0.8,3.2-2.4l0,0c0.8,0.8,3.2,1.6,4,0.8
	l3.2-1.6c1.6-0.8,2.4-2.4,1.6-4l0,0c1.6,0.8,3.2,0,4-1.6l1.6-3.2c0.8-1.6,0.8-3.2-0.8-4l0,0c1.6,0,2.4-1.6,2.4-3.2v-4
	C140,189.6,138.4,188,136.8,187.2z" class="mQGPXvHZ_26"></path>
<path style="fill:#5D6466;" d="M136.8,185.6L136.8,185.6c0.8-1.6,1.6-3.2,0.8-4.8l-1.6-3.2c-0.8-1.6-2.4-2.4-4-1.6l0,0
	c0.8-1.6,0-3.2-1.6-4l-3.2-1.6c-1.6-0.8-3.2-0.8-4,0.8l0,0c0-1.6-1.6-2.4-3.2-2.4h-4c-1.6,0-3.2,0.8-3.2,2.4l0,0
	c-0.8-0.8-3.2-1.6-4-0.8l-3.2,1.6c-1.6,0.8-1.6,2.4-1.6,4l0,0c-1.6-0.8-3.2,0-4,1.6l-1.6,3.2c-0.8,1.6-0.8,3.2,0.8,4l0,0
	c-1.6,0-2.4,1.6-2.4,3.2v4c0,1.6,0.8,3.2,2.4,3.2l0,0c-0.8,0.8-1.6,3.2-0.8,4l1.6,3.2c0.8,1.6,2.4,2.4,4,1.6l0,0
	c-0.8,1.6,0,3.2,1.6,4l3.2,1.6c1.6,0.8,3.2,0.8,4-0.8l0,0c0,1.6,1.6,2.4,3.2,2.4h4c1.6,0,3.2-0.8,3.2-2.4l0,0c0.8,0.8,3.2,1.6,4,0.8
	l3.2-1.6c1.6-0.8,2.4-2.4,1.6-4l0,0c1.6,0.8,3.2,0,4-1.6l1.6-3.2c0.8-1.6,0.8-3.2-0.8-4l0,0c1.6,0,2.4-1.6,2.4-3.2v-4
	C140,188,138.4,186.4,136.8,185.6z" class="mQGPXvHZ_27"></path>
<path style="fill:#4B5556;" d="M136.8,185.6L136.8,185.6c0.8-1.6,1.6-3.2,0.8-4.8l-1.6-3.2c-0.8-1.6-2.4-2.4-4-1.6l0,0
	c0.8-1.6,0-3.2-1.6-4l-3.2-1.6c-1.6-0.8-3.2-0.8-4,0.8l0,0c0-1.6-1.6-2.4-3.2-2.4h-4c-1.6,0-3.2,0.8-3.2,2.4l0,0
	c-0.8-0.8-3.2-1.6-4-0.8l-3.2,1.6c-1.6,0.8-1.6,2.4-1.6,4l0,0l29.6,29.6l0,0c1.6,0.8,3.2,0,4-1.6l1.6-3.2c0.8-1.6,0.8-3.2-0.8-4l0,0
	c1.6,0,2.4-1.6,2.4-3.2v-4C140,188,138.4,186.4,136.8,185.6z" class="mQGPXvHZ_28"></path>
<path style="fill:#566366;" d="M116.8,179.2c7.2,0,12.8,5.6,12.8,12v-0.8c0-7.2-5.6-12.8-12.8-12.8s-12.8,5.6-12.8,12.8v0.8
	C104.8,184,110.4,179.2,116.8,179.2z" class="mQGPXvHZ_29"></path>
<path style="fill:#424B4C;" d="M116.8,178.4c-7.2,0-12.8,5.6-12.8,12.8c0,4,2.4,13.6,5.6,20.8c0.8,0,1.6,0,2.4-0.8l0,0
	c0,1.6,1.6,2.4,3.2,2.4h4c1.6,0,3.2-0.8,3.2-2.4l0,0c0.8,0.8,1.6,0.8,2.4,0.8c3.2-7.2,4.8-16.8,4.8-20.8
	C130.4,184,124,178.4,116.8,178.4z" class="mQGPXvHZ_30"></path>
<path style="fill:#121C1B;" d="M130.4,191.2c0,7.2-5.6,12.8-12.8,12.8s-12.8-5.6-12.8-12.8s5.6-12.8,12.8-12.8
	C124,178.4,130.4,184,130.4,191.2z" class="mQGPXvHZ_31"></path>
<path style="fill:#283538;" d="M108,200.8c-4.8-4.8-4.8-13.6,0-18.4c4.8-4.8,13.6-4.8,18.4,0" class="mQGPXvHZ_32"></path>
<path style="fill:#121C1B;" d="M117.6,185.6c0,0.8,0,0.8-0.8,0.8l0,0c-0.8,0-0.8,0-0.8-0.8v-3.2c0-0.8,0-0.8,0.8-0.8l0,0
	c0.8,0,0.8,0,0.8,0.8V185.6z" class="mQGPXvHZ_33"></path>
<path style="fill:#FF7A17;" d="M117.6,184c0,0.8,0,0.8-0.8,0.8l0,0c-0.8,0-0.8,0-0.8-0.8v-3.2c0-0.8,0-0.8,0.8-0.8l0,0
	c0.8,0,0.8,0,0.8,0.8V184z" class="mQGPXvHZ_34"></path>
<path style="fill:#0D915E;" width="40" height="208.8" d="M165.6 189.6 L205.6 189.6 L205.6 398.4 L165.6 398.4 Z" class="mQGPXvHZ_35"></path>
<path style="fill:#121C1B;" d="M205.6,187.2L205.6,187.2c0.8-1.6,1.6-3.2,0.8-4.8L204,180c-0.8-1.6-2.4-2.4-4-1.6l0,0
	c0.8-1.6,0-3.2-1.6-4l-3.2-2.4c-1.6-0.8-3.2-0.8-4,0.8l0,0c0-1.6-1.6-2.4-3.2-2.4h-4c-1.6,0-3.2,0.8-3.2,2.4l0,0
	c-0.8-0.8-3.2-1.6-4-0.8l-3.2,1.6c-1.6,0.8-1.6,2.4-1.6,4l0,0c-1.6-0.8-3.2,0-4,1.6l-1.6,3.2c-0.8,1.6-0.8,3.2,0.8,4l0,0
	c-1.6,0-2.4,1.6-2.4,3.2v4c0,1.6,0.8,3.2,2.4,3.2l0,0c-0.8,0.8-1.6,3.2-0.8,4l1.6,3.2c0.8,1.6,2.4,1.6,4,1.6l0,0
	c-0.8,1.6,0,3.2,1.6,4l3.2,1.6c1.6,0.8,3.2,0.8,4-0.8l0,0c0,1.6,1.6,2.4,3.2,2.4h4c1.6,0,3.2-0.8,3.2-2.4l0,0c0.8,0.8,3.2,1.6,4,0.8
	l3.2-1.6c1.6-0.8,2.4-2.4,1.6-4l0,0c1.6,0.8,3.2,0,4-1.6l1.6-3.2c0.8-1.6,0.8-3.2-0.8-4l0,0c1.6,0,2.4-1.6,2.4-3.2v-4
	C208,189.6,207.2,188,205.6,187.2z" class="mQGPXvHZ_36"></path>
<path style="fill:#5D6466;" d="M205.6,185.6L205.6,185.6c0.8-1.6,1.6-3.2,0.8-4.8l-2.4-2.4c-0.8-1.6-2.4-2.4-4-1.6l0,0
	c0.8-1.6,0-3.2-1.6-4l-3.2-1.6c-1.6-0.8-3.2-0.8-4,0.8l0,0c0-1.6-1.6-2.4-3.2-2.4h-4c-1.6,0-3.2,0.8-3.2,2.4l0,0
	c-0.8-0.8-3.2-1.6-4-0.8l-3.2,1.6c-1.6,0.8-1.6,2.4-1.6,4l0,0c-1.6-0.8-3.2,0-4,1.6l-1.6,3.2c-0.8,1.6-0.8,3.2,0.8,4l0,0
	c-1.6,0-2.4,1.6-2.4,3.2v4c0,1.6,0.8,3.2,2.4,3.2l0,0c-0.8,0.8-1.6,3.2-0.8,4l1.6,3.2c0.8,1.6,2.4,2.4,4,1.6l0,0
	c-0.8,1.6,0,3.2,1.6,4l3.2,1.6c1.6,0.8,3.2,0.8,4-0.8l0,0c0,1.6,1.6,2.4,3.2,2.4h4c1.6,0,3.2-0.8,3.2-2.4l0,0c0.8,0.8,3.2,1.6,4,0.8
	l3.2-1.6c1.6-0.8,2.4-2.4,1.6-4l0,0c1.6,0.8,3.2,0,4-1.6l1.6-3.2c0.8-1.6,0.8-3.2-0.8-4l0,0c1.6,0,2.4-1.6,2.4-3.2v-4
	C208,188,207.2,186.4,205.6,185.6z" class="mQGPXvHZ_37"></path>
<path style="fill:#4B5556;" d="M205.6,185.6L205.6,185.6c0.8-1.6,1.6-3.2,0.8-4.8l-2.4-2.4c-0.8-1.6-2.4-2.4-4-1.6l0,0
	c0.8-1.6,0-3.2-1.6-4l-3.2-1.6c-1.6-0.8-3.2-0.8-4,0.8l0,0c0-1.6-1.6-2.4-3.2-2.4h-4c-1.6,0-3.2,0.8-3.2,2.4l0,0
	c-0.8-0.8-3.2-1.6-4-0.8l-3.2,1.6c-1.6,0.8-1.6,2.4-1.6,4l0,0l29.6,29.6l0,0c1.6,0.8,3.2,0,4-1.6l1.6-3.2c0.8-1.6,0.8-3.2-0.8-4l0,0
	c1.6,0,2.4-1.6,2.4-3.2v-4C208,188,207.2,186.4,205.6,185.6z" class="mQGPXvHZ_38"></path>
<path style="fill:#566366;" d="M185.6,179.2c7.2,0,12.8,5.6,12.8,12v-0.8c0-7.2-5.6-12.8-12.8-12.8s-12.8,5.6-12.8,12.8v0.8
	C172.8,184,178.4,179.2,185.6,179.2z" class="mQGPXvHZ_39"></path>
<path style="fill:#424B4C;" d="M185.6,178.4c-7.2,0-12.8,5.6-12.8,12.8c0,4,2.4,13.6,5.6,20.8c0.8,0,1.6,0,2.4-0.8l0,0
	c0,1.6,1.6,2.4,3.2,2.4h4c1.6,0,3.2-0.8,3.2-2.4l0,0c0.8,0.8,1.6,0.8,2.4,0.8c3.2-7.2,4.8-16.8,4.8-20.8
	C199.2,184,192.8,178.4,185.6,178.4z" class="mQGPXvHZ_40"></path>
<path style="fill:#121C1B;" d="M199.2,191.2c0,7.2-5.6,12.8-12.8,12.8s-12.8-5.6-12.8-12.8s5.6-12.8,12.8-12.8
	C192.8,178.4,199.2,184,199.2,191.2z" class="mQGPXvHZ_41"></path>
<path style="fill:#283538;" d="M176.8,200.8c-4.8-4.8-4.8-13.6,0-18.4c4.8-4.8,13.6-4.8,18.4,0" class="mQGPXvHZ_42"></path>
<path style="fill:#121C1B;" d="M186.4,185.6c0,0.8,0,0.8-0.8,0.8l0,0c-0.8,0-0.8,0-0.8-0.8v-3.2c0-0.8,0-0.8,0.8-0.8l0,0
	c0.8,0,0.8,0,0.8,0.8V185.6z" class="mQGPXvHZ_43"></path>
<path style="fill:#FF7A17;" d="M186.4,184c0,0.8,0,0.8-0.8,0.8l0,0c-0.8,0-0.8,0-0.8-0.8v-3.2c0-0.8,0-0.8,0.8-0.8l0,0
	c0.8,0,0.8,0,0.8,0.8V184z" class="mQGPXvHZ_44"></path>
<path style="fill:#0D915E;" width="40" height="208.8" d="M234.4 189.6 L274.4 189.6 L274.4 398.4 L234.4 398.4 Z" class="mQGPXvHZ_45"></path>
<path style="fill:#121C1B;" d="M274.4,187.2L274.4,187.2c0.8-1.6,1.6-3.2,0.8-4.8l-2.4-2.4c-0.8-1.6-2.4-2.4-4-1.6l0,0
	c0.8-1.6,0-3.2-1.6-4L264,172c-1.6-0.8-3.2-0.8-4,0.8l0,0c0-1.6-1.6-2.4-3.2-2.4h-4c-1.6,0-3.2,0.8-3.2,2.4l0,0
	c-0.8-0.8-3.2-1.6-4-0.8l-3.2,1.6c-1.6,0.8-1.6,2.4-1.6,4l0,0c-1.6-0.8-3.2,0-4,1.6l-1.6,3.2c-0.8,1.6-0.8,3.2,0.8,4l0,0
	c-1.6,0-2.4,1.6-2.4,3.2v4c0,1.6,0.8,3.2,2.4,3.2l0,0c-0.8,0.8-1.6,3.2-0.8,4l1.6,3.2c0.8,1.6,2.4,1.6,4,1.6l0,0
	c-0.8,1.6,0,3.2,1.6,4l3.2,1.6c1.6,0.8,3.2,0.8,4-0.8l0,0c0,1.6,1.6,2.4,3.2,2.4h4c1.6,0,3.2-0.8,3.2-2.4l0,0c0.8,0.8,3.2,1.6,4,0.8
	l3.2-1.6c1.6-0.8,2.4-2.4,1.6-4l0,0c1.6,0.8,3.2,0,4-1.6l1.6-3.2c0.8-1.6,0.8-3.2-0.8-4l0,0c1.6,0,2.4-1.6,2.4-3.2v-4
	C276.8,189.6,276,188,274.4,187.2z" class="mQGPXvHZ_46"></path>
<path style="fill:#5D6466;" d="M274.4,185.6L274.4,185.6c0.8-1.6,1.6-3.2,0.8-4.8l-1.6-3.2c-0.8-1.6-2.4-2.4-4-1.6l0,0
	c0.8-1.6,0-3.2-1.6-4l-3.2-1.6c-1.6-0.8-3.2-0.8-4,0.8l0,0c0-1.6-1.6-2.4-3.2-2.4h-4c-1.6,0-3.2,0.8-3.2,2.4l0,0
	c-0.8-0.8-3.2-1.6-4-0.8l-3.2,1.6c-1.6,0.8-1.6,2.4-1.6,4l0,0c-1.6-0.8-3.2,0-4,1.6l-1.6,3.2c-0.8,1.6-0.8,3.2,0.8,4l0,0
	c-1.6,0-2.4,1.6-2.4,3.2v4c0,1.6,0.8,3.2,2.4,3.2l0,0c-0.8,0.8-1.6,3.2-0.8,4l0,4.8c0.8,1.6,2.4,2.4,4,1.6l0,0c-0.8,1.6,0,3.2,1.6,4
	l3.2,1.6c1.6,0.8,3.2,0.8,4-0.8l0,0c0,1.6,1.6,2.4,3.2,2.4h4c1.6,0,3.2-0.8,3.2-2.4l0,0c0.8,0.8,3.2,1.6,4,0.8l3.2-1.6
	c1.6-0.8,2.4-2.4,1.6-4l0,0c1.6,0.8,3.2,0,4-1.6l1.6-3.2c0.8-1.6,0.8-3.2-0.8-4l0,0c1.6,0,2.4-1.6,2.4-3.2v-4
	C276.8,188,276,186.4,274.4,185.6z" class="mQGPXvHZ_47"></path>
<path style="fill:#4B5556;" d="M274.4,185.6L274.4,185.6c0.8-1.6,1.6-3.2,0.8-4.8l-1.6-3.2c-0.8-1.6-2.4-2.4-4-1.6l0,0
	c0.8-1.6,0-3.2-1.6-4l-3.2-1.6c-1.6-0.8-3.2-0.8-4,0.8l0,0c0-1.6-1.6-2.4-3.2-2.4h-4c-1.6,0-3.2,0.8-3.2,2.4l0,0
	c-0.8-0.8-3.2-1.6-4-0.8l-3.2,1.6c-1.6,0.8-1.6,2.4-1.6,4l0,0l29.6,29.6l0,0c1.6,0.8,3.2,0,4-1.6l1.6-3.2c0.8-1.6,0.8-3.2-0.8-4l0,0
	c1.6,0,2.4-1.6,2.4-3.2v-4C276.8,188,276,186.4,274.4,185.6z" class="mQGPXvHZ_48"></path>
<path style="fill:#566366;" d="M254.4,179.2c7.2,0,12.8,5.6,12.8,12v-0.8c0-7.2-5.6-12.8-12.8-12.8c-7.2,0-12.8,5.6-12.8,12.8v0.8
	C241.6,184,247.2,179.2,254.4,179.2z" class="mQGPXvHZ_49"></path>
<path style="fill:#424B4C;" d="M254.4,178.4c-7.2,0-12.8,5.6-12.8,12.8c0,4,2.4,13.6,5.6,20.8c0.8,0,1.6,0,2.4-0.8l0,0
	c0,1.6,1.6,2.4,3.2,2.4h4c1.6,0,3.2-0.8,3.2-2.4l0,0c0.8,0.8,1.6,0.8,2.4,0.8c3.2-7.2,4.8-16.8,4.8-20.8
	C267.2,184,261.6,178.4,254.4,178.4z" class="mQGPXvHZ_50"></path>
<path style="fill:#121C1B;" d="M267.2,191.2c0,7.2-5.6,12.8-12.8,12.8c-7.2,0-12.8-5.6-12.8-12.8s5.6-12.8,12.8-12.8
	C261.6,178.4,267.2,184,267.2,191.2z" class="mQGPXvHZ_51"></path>
<path style="fill:#283538;" d="M244.8,200.8c-4.8-4.8-4.8-13.6,0-18.4c4.8-4.8,13.6-4.8,18.4,0" class="mQGPXvHZ_52"></path>
<path style="fill:#121C1B;" d="M255.2,185.6c0,0.8,0,0.8-0.8,0.8l0,0c-0.8,0-0.8,0-0.8-0.8v-3.2c0-0.8,0-0.8,0.8-0.8l0,0
	c0.8,0,0.8,0,0.8,0.8V185.6z" class="mQGPXvHZ_53"></path>
<path style="fill:#FF7A17;" d="M255.2,184c0,0.8,0,0.8-0.8,0.8l0,0c-0.8,0-0.8,0-0.8-0.8v-3.2c0-0.8,0-0.8,0.8-0.8l0,0
	c0.8,0,0.8,0,0.8,0.8V184z" class="mQGPXvHZ_54"></path>
<path style="fill:#0D915E;" width="40" height="208.8" d="M303.2 189.6 L343.2 189.6 L343.2 398.4 L303.2 398.4 Z" class="mQGPXvHZ_55"></path>
<path style="fill:#121C1B;" d="M343.2,187.2L343.2,187.2c0.8-1.6,1.6-3.2,0.8-4.8l-2.4-2.4c-0.8-1.6-2.4-2.4-4-1.6l0,0
	c0.8-1.6,0-3.2-1.6-4l-3.2-2.4c-1.6-0.8-3.2-0.8-4,0.8l0,0c0-1.6-1.6-2.4-3.2-2.4h-4c-1.6,0-3.2,0.8-3.2,2.4l0,0
	c-2.4-0.8-4-1.6-4.8-0.8l-3.2,1.6c-1.6,0.8-1.6,2.4-1.6,4l0,0c-1.6-0.8-3.2,0-4,1.6l-1.6,3.2c-0.8,1.6-0.8,3.2,0.8,4l0,0
	c-1.6,0-2.4,1.6-2.4,3.2v4c0,1.6,0.8,3.2,2.4,3.2l0,0c-0.8,0.8-1.6,3.2-0.8,4l1.6,3.2c0.8,1.6,2.4,1.6,4,1.6l0,0
	c-0.8,1.6,0,3.2,1.6,4l3.2,1.6c1.6,0.8,3.2,0.8,4-0.8l0,0c0,1.6,1.6,2.4,3.2,2.4h4c1.6,0,3.2-0.8,3.2-2.4l0,0c0.8,0.8,3.2,1.6,4,0.8
	l3.2-1.6c1.6-0.8,2.4-2.4,1.6-4l0,0c1.6,0.8,3.2,0,4-1.6l1.6-3.2c0.8-1.6,0.8-3.2-0.8-4l0,0c1.6,0,2.4-1.6,2.4-3.2v-4
	C345.6,189.6,344.8,188,343.2,187.2z" class="mQGPXvHZ_56"></path>
<path style="fill:#5D6466;" d="M343.2,185.6L343.2,185.6c0.8-1.6,1.6-3.2,0.8-4.8l-1.6-3.2c-0.8-1.6-2.4-2.4-4-1.6l0,0
	c0.8-1.6,0-3.2-1.6-4l-3.2-1.6c-1.6-0.8-3.2-0.8-4,0.8l0,0c0-1.6-1.6-2.4-3.2-2.4h-4c-1.6,0-3.2,0.8-3.2,2.4l0,0
	c-0.8-0.8-3.2-1.6-4-0.8L312,172c-1.6,0.8-1.6,2.4-1.6,4l0,0c-1.6-0.8-3.2,0-4,1.6l-1.6,3.2c-0.8,1.6-0.8,3.2,0.8,4l0,0
	c-1.6,0-2.4,1.6-2.4,3.2v4c0,1.6,0.8,3.2,2.4,3.2l0,0c-0.8,0.8-1.6,3.2-0.8,4l1.6,3.2c0.8,1.6,2.4,2.4,4,1.6l0,0
	c-0.8,1.6,0,3.2,1.6,4l3.2,1.6c1.6,0.8,3.2,0.8,4-0.8l0,0c0,1.6,1.6,2.4,3.2,2.4h4c1.6,0,3.2-0.8,3.2-2.4l0,0c0.8,0.8,3.2,1.6,4,0.8
	l3.2-1.6c1.6-0.8,2.4-2.4,1.6-4l0,0c1.6,0.8,3.2,0,4-1.6l1.6-3.2c0.8-1.6,0.8-3.2-0.8-4l0,0c1.6,0,2.4-1.6,2.4-3.2v-4
	C345.6,188,344.8,186.4,343.2,185.6z" class="mQGPXvHZ_57"></path>
<path style="fill:#4B5556;" d="M343.2,185.6L343.2,185.6c0.8-1.6,1.6-3.2,0.8-4.8l-1.6-3.2c-0.8-1.6-2.4-2.4-4-1.6l0,0
	c0.8-1.6,0-3.2-1.6-4l-3.2-1.6c-1.6-0.8-3.2-0.8-4,0.8l0,0c0-1.6-1.6-2.4-3.2-2.4h-4c-1.6,0-3.2,0.8-3.2,2.4l0,0
	c-0.8-0.8-3.2-1.6-4-0.8L312,172c-1.6,0.8-1.6,2.4-1.6,4l0,0l29.6,29.6l0,0c1.6,0.8,3.2,0,4-1.6l1.6-3.2c0.8-1.6,0.8-3.2-0.8-4l0,0
	c1.6,0,2.4-1.6,2.4-3.2v-4C345.6,188,344.8,186.4,343.2,185.6z" class="mQGPXvHZ_58"></path>
<path style="fill:#566366;" d="M323.2,179.2c7.2,0,12.8,5.6,12.8,12v-0.8c0-7.2-5.6-12.8-12.8-12.8c-7.2,0-12.8,5.6-12.8,12.8v0.8
	C310.4,184,316,179.2,323.2,179.2z" class="mQGPXvHZ_59"></path>
<path style="fill:#424B4C;" d="M323.2,178.4c-7.2,0-12.8,5.6-12.8,12.8c0,4,2.4,13.6,5.6,20.8c0.8,0,1.6,0,2.4-0.8l0,0
	c0,1.6,1.6,2.4,3.2,2.4h4c1.6,0,3.2-0.8,3.2-2.4l0,0c0.8,0.8,1.6,0.8,2.4,0.8c3.2-7.2,4.8-16.8,4.8-20.8
	C336,184,330.4,178.4,323.2,178.4z" class="mQGPXvHZ_60"></path>
<path style="fill:#121C1B;" d="M336,191.2c0,7.2-5.6,12.8-12.8,12.8c-7.2,0-12.8-5.6-12.8-12.8s5.6-12.8,12.8-12.8
	S336,184,336,191.2z" class="mQGPXvHZ_61"></path>
<path style="fill:#283538;" d="M313.6,200.8c-4.8-4.8-4.8-13.6,0-18.4c4.8-4.8,13.6-4.8,18.4,0" class="mQGPXvHZ_62"></path>
<path style="fill:#121C1B;" d="M324,185.6c0,0.8,0,0.8-0.8,0.8l0,0c-0.8,0-0.8,0-0.8-0.8v-3.2c0-0.8,0-0.8,0.8-0.8l0,0
	c0.8,0,0.8,0,0.8,0.8V185.6z" class="mQGPXvHZ_63"></path>
<path style="fill:#FF7A17;" d="M324,184c0,0.8,0,0.8-0.8,0.8l0,0c-0.8,0-0.8,0-0.8-0.8v-3.2c0-0.8,0-0.8,0.8-0.8l0,0
	c0.8,0,0.8,0,0.8,0.8V184z" class="mQGPXvHZ_64"></path>
<path style="fill:#0D915E;" d="M141.6,404c-3.2,0-5.6-2.4-5.6-5.6V285.6c0-3.2,2.4-5.6,5.6-5.6h89.6c3.2,0,5.6,2.4,5.6,5.6v112.8
	c0,3.2-2.4,5.6-5.6,5.6L141.6,404L141.6,404z" class="mQGPXvHZ_65"></path>
<path style="fill:#CEEAE4;" d="M141.6,388.8c-3.2,0-5.6-2.4-5.6-5.6V270.4c0-3.2,2.4-5.6,5.6-5.6h89.6c3.2,0,5.6,2.4,5.6,5.6v112.8
	c0,3.2-2.4,5.6-5.6,5.6L141.6,388.8L141.6,388.8z" class="mQGPXvHZ_66"></path>
<path style="fill:#9AB7AF;" d="M231.2,264.8c3.2,0,5.6,2.4,5.6,5.6v112.8c0,3.2-2.4,5.6-5.6,5.6h-89.6c-3.2,0-5.6-2.4-5.6-5.6" class="mQGPXvHZ_67"></path>
<path style="fill:#283538;" d="M148,380.8c-2.4,0-4.8-2.4-4.8-4.8v-99.2c0-2.4,2.4-4.8,4.8-4.8h76.8c2.4,0,4.8,2.4,4.8,4.8v100
	c0,2.4-2.4,4.8-4.8,4.8H148V380.8z" class="mQGPXvHZ_68"></path>
<path style="fill:#121C1B;" d="M224.8,272c2.4,0,4.8,2.4,4.8,4.8v100c0,2.4-2.4,4.8-4.8,4.8H148c-2.4,0-4.8-2.4-4.8-4.8" class="mQGPXvHZ_69"></path>
<g>
	<path style="fill:#424B4C;" d="M221.6,378.4c-0.8,0-1.6-0.8-1.6-1.6V276c0-0.8,0.8-1.6,1.6-1.6l0,0c0.8,0,1.6,0.8,1.6,1.6v100.8
		C223.2,377.6,222.4,378.4,221.6,378.4L221.6,378.4z" class="mQGPXvHZ_70"></path>
	<path style="fill:#424B4C;" d="M209.6,378.4c-0.8,0-1.6-0.8-1.6-1.6V276c0-0.8,0.8-1.6,1.6-1.6l0,0c0.8,0,1.6,0.8,1.6,1.6v100.8
		C211.2,377.6,210.4,378.4,209.6,378.4L209.6,378.4z" class="mQGPXvHZ_71"></path>
	<path style="fill:#424B4C;" d="M198.4,378.4c-0.8,0-1.6-0.8-1.6-1.6V276c0-0.8,0.8-1.6,1.6-1.6l0,0c0.8,0,1.6,0.8,1.6,1.6v100.8
		C199.2,377.6,199.2,378.4,198.4,378.4L198.4,378.4z" class="mQGPXvHZ_72"></path>
	<path style="fill:#424B4C;" d="M186.4,378.4c-0.8,0-1.6-0.8-1.6-1.6V276c0-0.8,0.8-1.6,1.6-1.6l0,0c0.8,0,1.6,0.8,1.6,1.6v100.8
		C188,377.6,187.2,378.4,186.4,378.4L186.4,378.4z" class="mQGPXvHZ_73"></path>
	<path style="fill:#424B4C;" d="M174.4,378.4c-0.8,0-1.6-0.8-1.6-1.6V276c0-0.8,0.8-1.6,1.6-1.6l0,0c0.8,0,1.6,0.8,1.6,1.6v100.8
		C176,377.6,175.2,378.4,174.4,378.4L174.4,378.4z" class="mQGPXvHZ_74"></path>
	<path style="fill:#424B4C;" d="M162.4,378.4c-0.8,0-1.6-0.8-1.6-1.6V276c0-0.8,0.8-1.6,1.6-1.6l0,0c0.8,0,1.6,0.8,1.6,1.6v100.8
		C164,377.6,163.2,378.4,162.4,378.4L162.4,378.4z" class="mQGPXvHZ_75"></path>
	<path style="fill:#424B4C;" d="M150.4,378.4c-0.8,0-1.6-0.8-1.6-1.6V276c0-0.8,0.8-1.6,1.6-1.6l0,0c0.8,0,1.6,0.8,1.6,1.6v100.8
		C152,377.6,151.2,378.4,150.4,378.4L150.4,378.4z" class="mQGPXvHZ_76"></path>
</g>
<path style="fill:#0D915E;" d="M194.4,244c0,4.8-4,19.2-8,19.2c-4.8,0-8-14.4-8-19.2c0-4.8,4-8,8-8S194.4,240,194.4,244z" class="mQGPXvHZ_77"></path>
<path style="fill:#FF7A17;" d="M194.4,244c0,4.8-4,8-8,8c-4.8,0-8-4-8-8c0-4.8,4-8,8-8S194.4,240,194.4,244z" class="mQGPXvHZ_78"></path>
<path style="fill:#E2620C;" d="M180.8,238.4c3.2-3.2,8-3.2,11.2,0s3.2,8,0,11.2" class="mQGPXvHZ_79"></path>
<path style="fill:#0D915E;" d="M255.2,404c-3.2,0-5.6-2.4-5.6-5.6V285.6c0-3.2,2.4-5.6,5.6-5.6h89.6c3.2,0,5.6,2.4,5.6,5.6v112.8
	c0,3.2-2.4,5.6-5.6,5.6L255.2,404L255.2,404z" class="mQGPXvHZ_80"></path>
<path style="fill:#CEEAE4;" d="M255.2,388.8c-3.2,0-5.6-2.4-5.6-5.6V270.4c0-3.2,2.4-5.6,5.6-5.6h89.6c3.2,0,5.6,2.4,5.6,5.6v112.8
	c0,3.2-2.4,5.6-5.6,5.6L255.2,388.8L255.2,388.8z" class="mQGPXvHZ_81"></path>
<path style="fill:#9AB7AF;" d="M344.8,264.8c3.2,0,5.6,2.4,5.6,5.6v112.8c0,3.2-2.4,5.6-5.6,5.6h-89.6c-3.2,0-5.6-2.4-5.6-5.6" class="mQGPXvHZ_82"></path>
<path style="fill:#283538;" d="M261.6,380.8c-2.4,0-4.8-2.4-4.8-4.8v-99.2c0-2.4,2.4-4.8,4.8-4.8h76.8c2.4,0,4.8,2.4,4.8,4.8v100
	c0,2.4-2.4,4.8-4.8,4.8h-76.8V380.8z" class="mQGPXvHZ_83"></path>
<path style="fill:#121C1B;" d="M338.4,272c2.4,0,4.8,2.4,4.8,4.8v100c0,2.4-2.4,4.8-4.8,4.8h-76.8c-2.4,0-4.8-2.4-4.8-4.8" class="mQGPXvHZ_84"></path>
<g>
	<path style="fill:#424B4C;" d="M336,378.4c-0.8,0-1.6-0.8-1.6-1.6V276c0-0.8,0.8-1.6,1.6-1.6l0,0c0.8,0,1.6,0.8,1.6,1.6v100.8
		C336.8,377.6,336.8,378.4,336,378.4L336,378.4z" class="mQGPXvHZ_85"></path>
	<path style="fill:#424B4C;" d="M324,378.4c-0.8,0-1.6-0.8-1.6-1.6V276c0-0.8,0.8-1.6,1.6-1.6l0,0c0.8,0,1.6,0.8,1.6,1.6v100.8
		C325.6,377.6,324.8,378.4,324,378.4L324,378.4z" class="mQGPXvHZ_86"></path>
	<path style="fill:#424B4C;" d="M312,378.4c-0.8,0-1.6-0.8-1.6-1.6V276c0-0.8,0.8-1.6,1.6-1.6l0,0c0.8,0,1.6,0.8,1.6,1.6v100.8
		C313.6,377.6,312.8,378.4,312,378.4L312,378.4z" class="mQGPXvHZ_87"></path>
	<path style="fill:#424B4C;" d="M300,378.4c-0.8,0-1.6-0.8-1.6-1.6V276c0-0.8,0.8-1.6,1.6-1.6l0,0c0.8,0,1.6,0.8,1.6,1.6v100.8
		C301.6,377.6,300.8,378.4,300,378.4L300,378.4z" class="mQGPXvHZ_88"></path>
	<path style="fill:#424B4C;" d="M288,378.4c-0.8,0-1.6-0.8-1.6-1.6V276c0-0.8,0.8-1.6,1.6-1.6l0,0c0.8,0,1.6,0.8,1.6,1.6v100.8
		C289.6,377.6,288.8,378.4,288,378.4L288,378.4z" class="mQGPXvHZ_89"></path>
	<path style="fill:#424B4C;" d="M276,378.4c-0.8,0-1.6-0.8-1.6-1.6V276c0-0.8,0.8-1.6,1.6-1.6l0,0c0.8,0,1.6,0.8,1.6,1.6v100.8
		C277.6,377.6,276.8,378.4,276,378.4L276,378.4z" class="mQGPXvHZ_90"></path>
	<path style="fill:#424B4C;" d="M264,378.4c-0.8,0-1.6-0.8-1.6-1.6V276c0-0.8,0.8-1.6,1.6-1.6l0,0c0.8,0,1.6,0.8,1.6,1.6v100.8
		C265.6,377.6,264.8,378.4,264,378.4L264,378.4z" class="mQGPXvHZ_91"></path>
</g>
<path style="fill:#0D915E;" d="M308,244c0,4.8-4,19.2-8,19.2c-4.8,0-8-14.4-8-19.2c0-4.8,4-8,8-8S308,240,308,244z" class="mQGPXvHZ_92"></path>
<path style="fill:#0BD6D0;" d="M292,244A8,8 0,1,1 308,244A8,8 0,1,1 292,244" class="mQGPXvHZ_93"></path>
<path style="fill:#0DC1D3;" d="M294.4,238.4c3.2-3.2,8-3.2,11.2,0s3.2,8,0,11.2" class="mQGPXvHZ_94"></path>
<path style="fill:#0D915E;" d="M28,404c-3.2,0-5.6-2.4-5.6-5.6V285.6c0-3.2,2.4-5.6,5.6-5.6h89.6c3.2,0,5.6,2.4,5.6,5.6v112.8
	c0,3.2-2.4,5.6-5.6,5.6L28,404L28,404z" class="mQGPXvHZ_95"></path>
<path style="fill:#CEEAE4;" d="M28,388.8c-3.2,0-5.6-2.4-5.6-5.6V270.4c0-3.2,2.4-5.6,5.6-5.6h89.6c3.2,0,5.6,2.4,5.6,5.6v112.8
	c0,3.2-2.4,5.6-5.6,5.6L28,388.8L28,388.8z" class="mQGPXvHZ_96"></path>
<path style="fill:#9AB7AF;" d="M116.8,264.8c3.2,0,5.6,2.4,5.6,5.6v112.8c0,3.2-2.4,5.6-5.6,5.6H28c-3.2,0-5.6-2.4-5.6-5.6" class="mQGPXvHZ_97"></path>
<path style="fill:#283538;" d="M33.6,380.8c-2.4,0-4.8-2.4-4.8-4.8v-99.2c0-2.4,2.4-4.8,4.8-4.8h76.8c2.4,0,4.8,2.4,4.8,4.8v100
	c0,2.4-2.4,4.8-4.8,4.8H33.6V380.8z" class="mQGPXvHZ_98"></path>
<path style="fill:#121C1B;" d="M111.2,272c2.4,0,4.8,2.4,4.8,4.8v100c0,2.4-2.4,4.8-4.8,4.8H33.6c-2.4,0-4.8-2.4-4.8-4.8" class="mQGPXvHZ_99"></path>
<g>
	<path style="fill:#424B4C;" d="M108,378.4c-0.8,0-1.6-0.8-1.6-1.6V276c0-0.8,0.8-1.6,1.6-1.6l0,0c0.8,0,1.6,0.8,1.6,1.6v100.8
		C109.6,377.6,108.8,378.4,108,378.4L108,378.4z" class="mQGPXvHZ_100"></path>
	<path style="fill:#424B4C;" d="M96,378.4c-0.8,0-1.6-0.8-1.6-1.6V276c0-0.8,0.8-1.6,1.6-1.6l0,0c0.8,0,1.6,0.8,1.6,1.6v100.8
		C97.6,377.6,96.8,378.4,96,378.4L96,378.4z" class="mQGPXvHZ_101"></path>
	<path style="fill:#424B4C;" d="M84,378.4c-0.8,0-1.6-0.8-1.6-1.6V276c0-0.8,0.8-1.6,1.6-1.6l0,0c0.8,0,1.6,0.8,1.6,1.6v100.8
		C85.6,377.6,84.8,378.4,84,378.4L84,378.4z" class="mQGPXvHZ_102"></path>
	<path style="fill:#424B4C;" d="M72,378.4c-0.8,0-1.6-0.8-1.6-1.6V276c0-0.8,0.8-1.6,1.6-1.6l0,0c0.8,0,1.6,0.8,1.6,1.6v100.8
		C73.6,377.6,73.6,378.4,72,378.4L72,378.4z" class="mQGPXvHZ_103"></path>
	<path style="fill:#424B4C;" d="M60.8,378.4c-0.8,0-1.6-0.8-1.6-1.6V276c0-0.8,0.8-1.6,1.6-1.6l0,0c0.8,0,1.6,0.8,1.6,1.6v100.8
		C61.6,377.6,61.6,378.4,60.8,378.4L60.8,378.4z" class="mQGPXvHZ_104"></path>
	<path style="fill:#424B4C;" d="M48.8,378.4c-0.8,0-1.6-0.8-1.6-1.6V276c0-0.8,0.8-1.6,1.6-1.6l0,0c0.8,0,1.6,0.8,1.6,1.6v100.8
		C50.4,377.6,49.6,378.4,48.8,378.4L48.8,378.4z" class="mQGPXvHZ_105"></path>
	<path style="fill:#424B4C;" d="M36.8,378.4c-0.8,0-1.6-0.8-1.6-1.6V276c0-0.8,0.8-1.6,1.6-1.6l0,0c0.8,0,1.6,0.8,1.6,1.6v100.8
		C38.4,377.6,37.6,378.4,36.8,378.4L36.8,378.4z" class="mQGPXvHZ_106"></path>
</g>
<path style="fill:#0D915E;" d="M80.8,244c0,4.8-3.2,19.2-8,19.2s-8-14.4-8-19.2c0-4.8,4-8,8-8S80.8,240,80.8,244z" class="mQGPXvHZ_107"></path>
<path style="fill:#A9F711;" d="M64,244A8,8 0,1,1 80,244A8,8 0,1,1 64,244" class="mQGPXvHZ_108"></path>
<path style="fill:#A3E00B;" d="M66.4,238.4c3.2-3.2,8-3.2,11.2,0s3.2,8,0,11.2" class="mQGPXvHZ_109"></path>
<path style="fill:#ACC6C0;" d="M480,256c0,3.2-2.4,5.6-5.6,5.6H359.2c-3.2,0-5.6-2.4-5.6-5.6v-9.6c0-3.2,2.4-5.6,5.6-5.6h115.2
	c3.2,0,5.6,2.4,5.6,5.6L480,256L480,256z" class="mQGPXvHZ_110"></path>
<path style="fill:#88A39C;" d="M480,245.6v9.6c0,3.2-2.4,5.6-5.6,5.6H359.2c-3.2,0-5.6-2.4-5.6-5.6v-9.6" class="mQGPXvHZ_111"></path>
<path style="fill:#93B2AA;" d="M471.2,374.4c0,8.8-7.2,15.2-15.2,15.2h-79.2c-8.8,0-15.2-7.2-15.2-15.2v-248
	c0-8.8,7.2-15.2,15.2-15.2H456c8.8,0,15.2,7.2,15.2,15.2V374.4z" class="mQGPXvHZ_112"></path>
<path style="fill:#B4D6CE;" d="M471.2,122.4h-108c0,1.6-0.8,2.4-0.8,4v248H472v-248C471.2,125.6,471.2,124,471.2,122.4z" class="mQGPXvHZ_113"></path>
<path style="fill:#283538;" d="M464,358.4c0,7.2-5.6,13.6-13.6,13.6h-68c-7.2,0-13.6-5.6-13.6-13.6V143.2c0-7.2,5.6-13.6,13.6-13.6
	h68c7.2,0,13.6,5.6,13.6,13.6V358.4z" class="mQGPXvHZ_114"></path>
<path style="fill:#121C1B;" d="M369.6,143.2c0-7.2,5.6-13.6,13.6-13.6h68c7.2,0,13.6,5.6,13.6,13.6v214.4c0,7.2-5.6,13.6-13.6,13.6" class="mQGPXvHZ_115"></path>
<path style="fill:#525B5B;" d="M453.6,250.4c0,3.2-2.4,5.6-5.6,5.6h-61.6c-3.2,0-5.6-2.4-5.6-5.6l0,0c0-3.2,2.4-5.6,5.6-5.6H448
	C451.2,244.8,453.6,247.2,453.6,250.4L453.6,250.4z" class="mQGPXvHZ_116"></path>
<path style="fill:#424B4C;" d="M453.6,250.4L453.6,250.4c0,3.2-2.4,5.6-5.6,5.6h-61.6c-3.2,0-5.6-2.4-5.6-5.6l0,0" class="mQGPXvHZ_117"></path>
<path style="fill:#1DD868;" d="M275.2,154.4c0,2.4-1.6,4-4,4H30.4c-2.4,0-4-1.6-4-4v-36.8c0-2.4,1.6-4,4-4h240.8c2.4,0,4,1.6,4,4
	V154.4z" class="mQGPXvHZ_118"></path>
<path style="fill:#87D8C1;" d="M275.2,150.4c0,2.4-1.6,4-4,4H30.4c-2.4,0-4-1.6-4-4v-36.8c0-2.4,1.6-4,4-4h240.8c2.4,0,4,1.6,4,4
	V150.4z" class="mQGPXvHZ_119"></path>
<path style="fill:#71BFA7;" d="M271.2,109.6H30.4c-2.4,0-4,1.6-4,4v4.8c0-2.4,1.6-4,4-4h240.8c2.4,0,4,1.6,4,4v-4.8
	C275.2,111.2,273.6,109.6,271.2,109.6z" class="mQGPXvHZ_120"></path>
<g>
	<path style="fill:#0D915E;" d="M345.6,119.2c0,0.8-0.8,1.6-1.6,1.6h-44.8c-0.8,0-1.6-0.8-1.6-1.6l0,0c0-0.8,0.8-1.6,1.6-1.6H344
		C344.8,117.6,345.6,118.4,345.6,119.2L345.6,119.2z" class="mQGPXvHZ_121"></path>
	<path style="fill:#0D915E;" d="M345.6,132c0,0.8-0.8,1.6-1.6,1.6h-44.8c-0.8,0-1.6-0.8-1.6-1.6l0,0c0-0.8,0.8-1.6,1.6-1.6H344
		C344.8,130.4,345.6,131.2,345.6,132L345.6,132z" class="mQGPXvHZ_122"></path>
	<path style="fill:#0D915E;" d="M345.6,144.8c0,0.8-0.8,1.6-1.6,1.6h-44.8c-0.8,0-1.6-0.8-1.6-1.6l0,0c0-0.8,0.8-1.6,1.6-1.6H344
		C344.8,143.2,345.6,144,345.6,144.8L345.6,144.8z" class="mQGPXvHZ_123"></path>
	<path style="fill:#0D915E;" d="M345.6,157.6c0,0.8-0.8,1.6-1.6,1.6h-44.8c-0.8,0-1.6-0.8-1.6-1.6l0,0c0-0.8,0.8-1.6,1.6-1.6H344
		C344.8,156,345.6,156.8,345.6,157.6L345.6,157.6z" class="mQGPXvHZ_124"></path>
</g>
<g>
</g>
<g>
</g>
<g>
</g>
<g>
</g>
<g>
</g>
<g>
</g>
<g>
</g>
<g>
</g>
<g>
</g>
<g>
</g>
<g>
</g>
<g>
</g>
<g>
</g>
<g>
</g>
<g>
</g>
<style data-made-with="vivus-instant">.mQGPXvHZ_0{stroke-dasharray:107 109;stroke-dashoffset:108;animation:mQGPXvHZ_draw 3000ms linear 0ms forwards;}.mQGPXvHZ_1{stroke-dasharray:77 79;stroke-dashoffset:78;animation:mQGPXvHZ_draw 3000ms linear 0ms forwards;}.mQGPXvHZ_2{stroke-dasharray:107 109;stroke-dashoffset:108;animation:mQGPXvHZ_draw 3000ms linear 0ms forwards;}.mQGPXvHZ_3{stroke-dasharray:77 79;stroke-dashoffset:78;animation:mQGPXvHZ_draw 3000ms linear 0ms forwards;}.mQGPXvHZ_4{stroke-dasharray:107 109;stroke-dashoffset:108;animation:mQGPXvHZ_draw 3000ms linear 0ms forwards;}.mQGPXvHZ_5{stroke-dasharray:77 79;stroke-dashoffset:78;animation:mQGPXvHZ_draw 3000ms linear 0ms forwards;}.mQGPXvHZ_6{stroke-dasharray:108 110;stroke-dashoffset:109;animation:mQGPXvHZ_draw 3000ms linear 0ms forwards;}.mQGPXvHZ_7{stroke-dasharray:78 80;stroke-dashoffset:79;animation:mQGPXvHZ_draw 3000ms linear 0ms forwards;}.mQGPXvHZ_8{stroke-dasharray:1562 1564;stroke-dashoffset:1563;animation:mQGPXvHZ_draw 3000ms linear 0ms forwards;}.mQGPXvHZ_9{stroke-dasharray:1562 1564;stroke-dashoffset:1563;animation:mQGPXvHZ_draw 3000ms linear 0ms forwards;}.mQGPXvHZ_10{stroke-dasharray:1562 1564;stroke-dashoffset:1563;animation:mQGPXvHZ_draw 3000ms linear 0ms forwards;}.mQGPXvHZ_11{stroke-dasharray:1562 1564;stroke-dashoffset:1563;animation:mQGPXvHZ_draw 3000ms linear 0ms forwards;}.mQGPXvHZ_12{stroke-dasharray:806 808;stroke-dashoffset:807;animation:mQGPXvHZ_draw 3000ms linear 0ms forwards;}.mQGPXvHZ_13{stroke-dasharray:750 752;stroke-dashoffset:751;animation:mQGPXvHZ_draw 3000ms linear 0ms forwards;}.mQGPXvHZ_14{stroke-dasharray:285 287;stroke-dashoffset:286;animation:mQGPXvHZ_draw 3000ms linear 0ms forwards;}.mQGPXvHZ_15{stroke-dasharray:498 500;stroke-dashoffset:499;animation:mQGPXvHZ_draw 3000ms linear 0ms forwards;}.mQGPXvHZ_16{stroke-dasharray:158 160;stroke-dashoffset:159;animation:mQGPXvHZ_draw 3000ms linear 0ms forwards;}.mQGPXvHZ_17{stroke-dasharray:162 164;stroke-dashoffset:163;animation:mQGPXvHZ_draw 3000ms linear 0ms forwards;}.mQGPXvHZ_18{stroke-dasharray:122 124;stroke-dashoffset:123;animation:mQGPXvHZ_draw 3000ms linear 0ms forwards;}.mQGPXvHZ_19{stroke-dasharray:82 84;stroke-dashoffset:83;animation:mQGPXvHZ_draw 3000ms linear 0ms forwards;}.mQGPXvHZ_20{stroke-dasharray:102 104;stroke-dashoffset:103;animation:mQGPXvHZ_draw 3000ms linear 0ms forwards;}.mQGPXvHZ_21{stroke-dasharray:81 83;stroke-dashoffset:82;animation:mQGPXvHZ_draw 3000ms linear 0ms forwards;}.mQGPXvHZ_22{stroke-dasharray:41 43;stroke-dashoffset:42;animation:mQGPXvHZ_draw 3000ms linear 0ms forwards;}.mQGPXvHZ_23{stroke-dasharray:13 15;stroke-dashoffset:14;animation:mQGPXvHZ_draw 3000ms linear 0ms forwards;}.mQGPXvHZ_24{stroke-dasharray:13 15;stroke-dashoffset:14;animation:mQGPXvHZ_draw 3000ms linear 0ms forwards;}.mQGPXvHZ_25{stroke-dasharray:498 500;stroke-dashoffset:499;animation:mQGPXvHZ_draw 3000ms linear 0ms forwards;}.mQGPXvHZ_26{stroke-dasharray:155 157;stroke-dashoffset:156;animation:mQGPXvHZ_draw 3000ms linear 0ms forwards;}.mQGPXvHZ_27{stroke-dasharray:155 157;stroke-dashoffset:156;animation:mQGPXvHZ_draw 3000ms linear 0ms forwards;}.mQGPXvHZ_28{stroke-dasharray:122 124;stroke-dashoffset:123;animation:mQGPXvHZ_draw 3000ms linear 0ms forwards;}.mQGPXvHZ_29{stroke-dasharray:81 83;stroke-dashoffset:82;animation:mQGPXvHZ_draw 3000ms linear 0ms forwards;}.mQGPXvHZ_30{stroke-dasharray:102 104;stroke-dashoffset:103;animation:mQGPXvHZ_draw 3000ms linear 0ms forwards;}.mQGPXvHZ_31{stroke-dasharray:81 83;stroke-dashoffset:82;animation:mQGPXvHZ_draw 3000ms linear 0ms forwards;}.mQGPXvHZ_32{stroke-dasharray:41 43;stroke-dashoffset:42;animation:mQGPXvHZ_draw 3000ms linear 0ms forwards;}.mQGPXvHZ_33{stroke-dasharray:13 15;stroke-dashoffset:14;animation:mQGPXvHZ_draw 3000ms linear 0ms forwards;}.mQGPXvHZ_34{stroke-dasharray:13 15;stroke-dashoffset:14;animation:mQGPXvHZ_draw 3000ms linear 0ms forwards;}.mQGPXvHZ_35{stroke-dasharray:498 500;stroke-dashoffset:499;animation:mQGPXvHZ_draw 3000ms linear 0ms forwards;}.mQGPXvHZ_36{stroke-dasharray:155 157;stroke-dashoffset:156;animation:mQGPXvHZ_draw 3000ms linear 0ms forwards;}.mQGPXvHZ_37{stroke-dasharray:155 157;stroke-dashoffset:156;animation:mQGPXvHZ_draw 3000ms linear 0ms forwards;}.mQGPXvHZ_38{stroke-dasharray:122 124;stroke-dashoffset:123;animation:mQGPXvHZ_draw 3000ms linear 0ms forwards;}.mQGPXvHZ_39{stroke-dasharray:82 84;stroke-dashoffset:83;animation:mQGPXvHZ_draw 3000ms linear 0ms forwards;}.mQGPXvHZ_40{stroke-dasharray:102 104;stroke-dashoffset:103;animation:mQGPXvHZ_draw 3000ms linear 0ms forwards;}.mQGPXvHZ_41{stroke-dasharray:81 83;stroke-dashoffset:82;animation:mQGPXvHZ_draw 3000ms linear 0ms forwards;}.mQGPXvHZ_42{stroke-dasharray:41 43;stroke-dashoffset:42;animation:mQGPXvHZ_draw 3000ms linear 0ms forwards;}.mQGPXvHZ_43{stroke-dasharray:13 15;stroke-dashoffset:14;animation:mQGPXvHZ_draw 3000ms linear 0ms forwards;}.mQGPXvHZ_44{stroke-dasharray:13 15;stroke-dashoffset:14;animation:mQGPXvHZ_draw 3000ms linear 0ms forwards;}.mQGPXvHZ_45{stroke-dasharray:498 500;stroke-dashoffset:499;animation:mQGPXvHZ_draw 3000ms linear 0ms forwards;}.mQGPXvHZ_46{stroke-dasharray:155 157;stroke-dashoffset:156;animation:mQGPXvHZ_draw 3000ms linear 0ms forwards;}.mQGPXvHZ_47{stroke-dasharray:158 160;stroke-dashoffset:159;animation:mQGPXvHZ_draw 3000ms linear 0ms forwards;}.mQGPXvHZ_48{stroke-dasharray:122 124;stroke-dashoffset:123;animation:mQGPXvHZ_draw 3000ms linear 0ms forwards;}.mQGPXvHZ_49{stroke-dasharray:82 84;stroke-dashoffset:83;animation:mQGPXvHZ_draw 3000ms linear 0ms forwards;}.mQGPXvHZ_50{stroke-dasharray:102 104;stroke-dashoffset:103;animation:mQGPXvHZ_draw 3000ms linear 0ms forwards;}.mQGPXvHZ_51{stroke-dasharray:81 83;stroke-dashoffset:82;animation:mQGPXvHZ_draw 3000ms linear 0ms forwards;}.mQGPXvHZ_52{stroke-dasharray:41 43;stroke-dashoffset:42;animation:mQGPXvHZ_draw 3000ms linear 0ms forwards;}.mQGPXvHZ_53{stroke-dasharray:13 15;stroke-dashoffset:14;animation:mQGPXvHZ_draw 3000ms linear 0ms forwards;}.mQGPXvHZ_54{stroke-dasharray:13 15;stroke-dashoffset:14;animation:mQGPXvHZ_draw 3000ms linear 0ms forwards;}.mQGPXvHZ_55{stroke-dasharray:498 500;stroke-dashoffset:499;animation:mQGPXvHZ_draw 3000ms linear 0ms forwards;}.mQGPXvHZ_56{stroke-dasharray:156 158;stroke-dashoffset:157;animation:mQGPXvHZ_draw 3000ms linear 0ms forwards;}.mQGPXvHZ_57{stroke-dasharray:155 157;stroke-dashoffset:156;animation:mQGPXvHZ_draw 3000ms linear 0ms forwards;}.mQGPXvHZ_58{stroke-dasharray:122 124;stroke-dashoffset:123;animation:mQGPXvHZ_draw 3000ms linear 0ms forwards;}.mQGPXvHZ_59{stroke-dasharray:82 84;stroke-dashoffset:83;animation:mQGPXvHZ_draw 3000ms linear 0ms forwards;}.mQGPXvHZ_60{stroke-dasharray:102 104;stroke-dashoffset:103;animation:mQGPXvHZ_draw 3000ms linear 0ms forwards;}.mQGPXvHZ_61{stroke-dasharray:81 83;stroke-dashoffset:82;animation:mQGPXvHZ_draw 3000ms linear 0ms forwards;}.mQGPXvHZ_62{stroke-dasharray:41 43;stroke-dashoffset:42;animation:mQGPXvHZ_draw 3000ms linear 0ms forwards;}.mQGPXvHZ_63{stroke-dasharray:13 15;stroke-dashoffset:14;animation:mQGPXvHZ_draw 3000ms linear 0ms forwards;}.mQGPXvHZ_64{stroke-dasharray:13 15;stroke-dashoffset:14;animation:mQGPXvHZ_draw 3000ms linear 0ms forwards;}.mQGPXvHZ_65{stroke-dasharray:441 443;stroke-dashoffset:442;animation:mQGPXvHZ_draw 3000ms linear 0ms forwards;}.mQGPXvHZ_66{stroke-dasharray:441 443;stroke-dashoffset:442;animation:mQGPXvHZ_draw 3000ms linear 0ms forwards;}.mQGPXvHZ_67{stroke-dasharray:229 231;stroke-dashoffset:230;animation:mQGPXvHZ_draw 3000ms linear 0ms forwards;}.mQGPXvHZ_68{stroke-dasharray:384 386;stroke-dashoffset:385;animation:mQGPXvHZ_draw 3000ms linear 0ms forwards;}.mQGPXvHZ_69{stroke-dasharray:200 202;stroke-dashoffset:201;animation:mQGPXvHZ_draw 3000ms linear 0ms forwards;}.mQGPXvHZ_70{stroke-dasharray:212 214;stroke-dashoffset:213;animation:mQGPXvHZ_draw 3000ms linear 0ms forwards;}.mQGPXvHZ_71{stroke-dasharray:212 214;stroke-dashoffset:213;animation:mQGPXvHZ_draw 3000ms linear 0ms forwards;}.mQGPXvHZ_72{stroke-dasharray:212 214;stroke-dashoffset:213;animation:mQGPXvHZ_draw 3000ms linear 0ms forwards;}.mQGPXvHZ_73{stroke-dasharray:212 214;stroke-dashoffset:213;animation:mQGPXvHZ_draw 3000ms linear 0ms forwards;}.mQGPXvHZ_74{stroke-dasharray:212 214;stroke-dashoffset:213;animation:mQGPXvHZ_draw 3000ms linear 0ms forwards;}.mQGPXvHZ_75{stroke-dasharray:212 214;stroke-dashoffset:213;animation:mQGPXvHZ_draw 3000ms linear 0ms forwards;}.mQGPXvHZ_76{stroke-dasharray:212 214;stroke-dashoffset:213;animation:mQGPXvHZ_draw 3000ms linear 0ms forwards;}.mQGPXvHZ_77{stroke-dasharray:69 71;stroke-dashoffset:70;animation:mQGPXvHZ_draw 3000ms linear 0ms forwards;}.mQGPXvHZ_78{stroke-dasharray:51 53;stroke-dashoffset:52;animation:mQGPXvHZ_draw 3000ms linear 0ms forwards;}.mQGPXvHZ_79{stroke-dasharray:26 28;stroke-dashoffset:27;animation:mQGPXvHZ_draw 3000ms linear 0ms forwards;}.mQGPXvHZ_80{stroke-dasharray:441 443;stroke-dashoffset:442;animation:mQGPXvHZ_draw 3000ms linear 0ms forwards;}.mQGPXvHZ_81{stroke-dasharray:441 443;stroke-dashoffset:442;animation:mQGPXvHZ_draw 3000ms linear 0ms forwards;}.mQGPXvHZ_82{stroke-dasharray:229 231;stroke-dashoffset:230;animation:mQGPXvHZ_draw 3000ms linear 0ms forwards;}.mQGPXvHZ_83{stroke-dasharray:384 386;stroke-dashoffset:385;animation:mQGPXvHZ_draw 3000ms linear 0ms forwards;}.mQGPXvHZ_84{stroke-dasharray:200 202;stroke-dashoffset:201;animation:mQGPXvHZ_draw 3000ms linear 0ms forwards;}.mQGPXvHZ_85{stroke-dasharray:212 214;stroke-dashoffset:213;animation:mQGPXvHZ_draw 3000ms linear 0ms forwards;}.mQGPXvHZ_86{stroke-dasharray:212 214;stroke-dashoffset:213;animation:mQGPXvHZ_draw 3000ms linear 0ms forwards;}.mQGPXvHZ_87{stroke-dasharray:212 214;stroke-dashoffset:213;animation:mQGPXvHZ_draw 3000ms linear 0ms forwards;}.mQGPXvHZ_88{stroke-dasharray:212 214;stroke-dashoffset:213;animation:mQGPXvHZ_draw 3000ms linear 0ms forwards;}.mQGPXvHZ_89{stroke-dasharray:212 214;stroke-dashoffset:213;animation:mQGPXvHZ_draw 3000ms linear 0ms forwards;}.mQGPXvHZ_90{stroke-dasharray:212 214;stroke-dashoffset:213;animation:mQGPXvHZ_draw 3000ms linear 0ms forwards;}.mQGPXvHZ_91{stroke-dasharray:212 214;stroke-dashoffset:213;animation:mQGPXvHZ_draw 3000ms linear 0ms forwards;}.mQGPXvHZ_92{stroke-dasharray:69 71;stroke-dashoffset:70;animation:mQGPXvHZ_draw 3000ms linear 0ms forwards;}.mQGPXvHZ_93{stroke-dasharray:51 53;stroke-dashoffset:52;animation:mQGPXvHZ_draw 3000ms linear 0ms forwards;}.mQGPXvHZ_94{stroke-dasharray:26 28;stroke-dashoffset:27;animation:mQGPXvHZ_draw 3000ms linear 0ms forwards;}.mQGPXvHZ_95{stroke-dasharray:441 443;stroke-dashoffset:442;animation:mQGPXvHZ_draw 3000ms linear 0ms forwards;}.mQGPXvHZ_96{stroke-dasharray:441 443;stroke-dashoffset:442;animation:mQGPXvHZ_draw 3000ms linear 0ms forwards;}.mQGPXvHZ_97{stroke-dasharray:229 231;stroke-dashoffset:230;animation:mQGPXvHZ_draw 3000ms linear 0ms forwards;}.mQGPXvHZ_98{stroke-dasharray:384 386;stroke-dashoffset:385;animation:mQGPXvHZ_draw 3000ms linear 0ms forwards;}.mQGPXvHZ_99{stroke-dasharray:200 202;stroke-dashoffset:201;animation:mQGPXvHZ_draw 3000ms linear 0ms forwards;}.mQGPXvHZ_100{stroke-dasharray:212 214;stroke-dashoffset:213;animation:mQGPXvHZ_draw 3000ms linear 0ms forwards;}.mQGPXvHZ_101{stroke-dasharray:212 214;stroke-dashoffset:213;animation:mQGPXvHZ_draw 3000ms linear 0ms forwards;}.mQGPXvHZ_102{stroke-dasharray:212 214;stroke-dashoffset:213;animation:mQGPXvHZ_draw 3000ms linear 0ms forwards;}.mQGPXvHZ_103{stroke-dasharray:212 214;stroke-dashoffset:213;animation:mQGPXvHZ_draw 3000ms linear 0ms forwards;}.mQGPXvHZ_104{stroke-dasharray:212 214;stroke-dashoffset:213;animation:mQGPXvHZ_draw 3000ms linear 0ms forwards;}.mQGPXvHZ_105{stroke-dasharray:212 214;stroke-dashoffset:213;animation:mQGPXvHZ_draw 3000ms linear 0ms forwards;}.mQGPXvHZ_106{stroke-dasharray:212 214;stroke-dashoffset:213;animation:mQGPXvHZ_draw 3000ms linear 0ms forwards;}.mQGPXvHZ_107{stroke-dasharray:69 71;stroke-dashoffset:70;animation:mQGPXvHZ_draw 3000ms linear 0ms forwards;}.mQGPXvHZ_108{stroke-dasharray:51 53;stroke-dashoffset:52;animation:mQGPXvHZ_draw 3000ms linear 0ms forwards;}.mQGPXvHZ_109{stroke-dasharray:26 28;stroke-dashoffset:27;animation:mQGPXvHZ_draw 3000ms linear 0ms forwards;}.mQGPXvHZ_110{stroke-dasharray:285 287;stroke-dashoffset:286;animation:mQGPXvHZ_draw 3000ms linear 0ms forwards;}.mQGPXvHZ_111{stroke-dasharray:153 155;stroke-dashoffset:154;animation:mQGPXvHZ_draw 3000ms linear 0ms forwards;}.mQGPXvHZ_112{stroke-dasharray:750 752;stroke-dashoffset:751;animation:mQGPXvHZ_draw 3000ms linear 0ms forwards;}.mQGPXvHZ_113{stroke-dasharray:722 724;stroke-dashoffset:723;animation:mQGPXvHZ_draw 3000ms linear 0ms forwards;}.mQGPXvHZ_114{stroke-dasharray:653 655;stroke-dashoffset:654;animation:mQGPXvHZ_draw 3000ms linear 0ms forwards;}.mQGPXvHZ_115{stroke-dasharray:347 349;stroke-dashoffset:348;animation:mQGPXvHZ_draw 3000ms linear 0ms forwards;}.mQGPXvHZ_116{stroke-dasharray:159 161;stroke-dashoffset:160;animation:mQGPXvHZ_draw 3000ms linear 0ms forwards;}.mQGPXvHZ_117{stroke-dasharray:80 82;stroke-dashoffset:81;animation:mQGPXvHZ_draw 3000ms linear 0ms forwards;}.mQGPXvHZ_118{stroke-dasharray:581 583;stroke-dashoffset:582;animation:mQGPXvHZ_draw 3000ms linear 0ms forwards;}.mQGPXvHZ_119{stroke-dasharray:581 583;stroke-dashoffset:582;animation:mQGPXvHZ_draw 3000ms linear 0ms forwards;}.mQGPXvHZ_120{stroke-dasharray:517 519;stroke-dashoffset:518;animation:mQGPXvHZ_draw 3000ms linear 0ms forwards;}.mQGPXvHZ_121{stroke-dasharray:100 102;stroke-dashoffset:101;animation:mQGPXvHZ_draw 3000ms linear 0ms forwards;}.mQGPXvHZ_122{stroke-dasharray:100 102;stroke-dashoffset:101;animation:mQGPXvHZ_draw 3000ms linear 0ms forwards;}.mQGPXvHZ_123{stroke-dasharray:100 102;stroke-dashoffset:101;animation:mQGPXvHZ_draw 3000ms linear 0ms forwards;}.mQGPXvHZ_124{stroke-dasharray:100 102;stroke-dashoffset:101;animation:mQGPXvHZ_draw 3000ms linear 0ms forwards;}@keyframes mQGPXvHZ_draw{100%{stroke-dashoffset:0;}}@keyframes mQGPXvHZ_fade{0%{stroke-opacity:1;}94.44444444444444%{stroke-opacity:1;}100%{stroke-opacity:0;}}</style></svg>
