<?xml version="1.0" encoding="iso-8859-1"?>
<!-- Generator: Adobe Illustrator 19.0.0, SVG Export Plug-In . SVG Version: 6.00 Build 0)  -->
<svg version="1.1" id="Layer_1" xmlns="http://www.w3.org/2000/svg" xmlns:xlink="http://www.w3.org/1999/xlink" x="0px" y="0px"
	 viewBox="0 0 488 488" style="enable-background:new 0 0 488 488;" xml:space="preserve">
<path style="fill:#B5BABA;" d="M83.2,76c4.8,0,8.8,4,8.8,8.8v2.4c0,4.8-4,8.8-8.8,8.8H60c-4.8,0-8.8-4-8.8-8.8v-2.4
	c0-4.8,4-8.8,8.8-8.8H83.2z"/>
<path style="fill:#9FA5A5;" d="M60,76h23.2c4.8,0,8.8,4,8.8,8.8v2.4c0,4.8-4,8.8-8.8,8.8H60"/>
<path style="fill:#B5BABA;" d="M228,76c4.8,0,8.8,4,8.8,8.8v2.4c0,4.8-4,8.8-8.8,8.8h-23.2c-4.8,0-8.8-4-8.8-8.8v-2.4
	c0-4.8,4-8.8,8.8-8.8H228z"/>
<path style="fill:#9FA5A5;" d="M204.8,76H228c4.8,0,8.8,4,8.8,8.8v2.4c0,4.8-4,8.8-8.8,8.8h-23.2"/>
<path style="fill:#B5BABA;" d="M276,76c4.8,0,8.8,4,8.8,8.8v2.4c0,4.8-4,8.8-8.8,8.8h-23.2c-4.8,0-8.8-4-8.8-8.8v-2.4
	c0-4.8,4-8.8,8.8-8.8H276z"/>
<path style="fill:#9FA5A5;" d="M252.8,76H276c4.8,0,8.8,4,8.8,8.8v2.4c0,4.8-4,8.8-8.8,8.8h-23.2"/>
<path style="fill:#B5BABA;" d="M324,76c4.8,0,8.8,4,8.8,8.8v2.4c0,4.8-4,8.8-8.8,8.8h-24c-4.8,0-8.8-4-8.8-8.8v-2.4
	c0-4.8,4-8.8,8.8-8.8H324z"/>
<path style="fill:#9FA5A5;" d="M300,76h24c4.8,0,8.8,4,8.8,8.8v2.4c0,4.8-4,8.8-8.8,8.8h-24"/>
<path style="fill:#1DD868;" d="M488,373.6c0,8.8-7.2,16-16,16H16c-8.8,0-16-7.2-16-16V99.2c0-8.8,7.2-16,16-16h456
	c8.8,0,16,7.2,16,16V373.6z"/>
<path style="fill:#13AA50;" d="M488,396c0,8.8-7.2,16-16,16H16c-8.8,0-16-7.2-16-16V121.6c0-8.8,7.2-16,16-16h456
	c8.8,0,16,7.2,16,16V396z"/>
<path style="fill:#0D915E;" d="M488,396c0,8.8-7.2,16-16,16H16c-8.8,0-16-7.2-16-16V121.6c0-8.8,7.2-16,16-16h456
	c8.8,0,16,7.2,16,16V396z"/>
<path style="fill:#26BF64;" d="M488,380c0,8.8-7.2,16-16,16H16c-8.8,0-16-7.2-16-16V105.6c0-8.8,7.2-16,16-16h456
	c8.8,0,16,7.2,16,16V380z"/>
<path style="fill:#14A862;" d="M0,105.6c0-8.8,7.2-16,16-16h456c8.8,0,16,7.2,16,16V380c0,8.8-7.2,16-16,16"/>
<path style="fill:#0D915E;" d="M471.2,392c0,8.8-7.2,15.2-15.2,15.2h-79.2c-8.8,0-15.2-7.2-15.2-15.2V144c0-8.8,7.2-15.2,15.2-15.2
	H456c8.8,0,15.2,7.2,15.2,15.2V392z"/>
<path style="fill:#13AA50;" d="M480,260.8c0,3.2-2.4,5.6-5.6,5.6H359.2c-3.2,0-5.6-2.4-5.6-5.6v-9.6c0-3.2,2.4-5.6,5.6-5.6h115.2
	c3.2,0,5.6,2.4,5.6,5.6L480,260.8L480,260.8z"/>
<rect x="28.8" y="189.6" style="fill:#0D915E;" width="40" height="208.8"/>
<path style="fill:#121C1B;" d="M68.8,187.2L68.8,187.2c0.8-1.6,1.6-3.2,0.8-4.8l-2.4-2.4c-0.8-1.6-2.4-2.4-4-1.6l0,0
	c0.8-1.6,0-3.2-1.6-4l-3.2-2.4c-1.6-0.8-3.2-0.8-4,0.8l0,0c0-1.6-1.6-2.4-3.2-2.4h-4.8c-1.6,0-3.2,0.8-3.2,2.4l0,0
	c-1.6-0.8-3.2-1.6-4.8-0.8l-3.2,1.6c-1.6,0.8-1.6,2.4-1.6,4l0,0c-1.6-0.8-3.2,0-4,1.6l-1.6,4c-0.8,1.6-0.8,3.2,0.8,4l0,0
	c-1.6,0-2.4,1.6-2.4,3.2v4c0,1.6,0.8,3.2,2.4,3.2l0,0c-0.8,0.8-1.6,3.2-0.8,4l1.6,3.2c0.8,1.6,2.4,1.6,4,1.6l0,0
	c-0.8,1.6,0,3.2,1.6,4l3.2,1.6c1.6,0.8,3.2,0.8,4-0.8l0,0c0,1.6,1.6,2.4,3.2,2.4h4c1.6,0,3.2-0.8,3.2-2.4l0,0c0.8,0.8,3.2,1.6,4,0.8
	l3.2-1.6c1.6-0.8,2.4-2.4,1.6-4l0,0c1.6,0.8,3.2,0,4-1.6l1.6-3.2c0.8-1.6,0.8-3.2-0.8-4l0,0c1.6,0,2.4-1.6,2.4-3.2v-4
	C71.2,189.6,69.6,188,68.8,187.2z"/>
<path style="fill:#5D6466;" d="M68.8,185.6L68.8,185.6c0.8-1.6,1.6-3.2,0.8-4.8l-1.6-3.2c-0.8-1.6-2.4-2.4-4-1.6l0,0
	c0.8-1.6,0-3.2-1.6-4l-3.2-1.6c-1.6-0.8-3.2-0.8-4,0.8l0,0c0-1.6-1.6-2.4-3.2-2.4h-5.6c-1.6,0-3.2,0.8-3.2,2.4l0,0
	c-0.8-0.8-3.2-1.6-4-0.8L36,172c-1.6,0.8-1.6,2.4-1.6,4l0,0c-1.6-0.8-3.2,0-4,1.6l-2.4,4c-0.8,1.6-0.8,3.2,0.8,4l0,0
	c-1.6,0-2.4,1.6-2.4,3.2v4c0,1.6,0.8,3.2,2.4,3.2l0,0c-0.8,0.8-1.6,3.2-0.8,4l1.6,4c0.8,1.6,2.4,2.4,4,1.6l0,0c-0.8,1.6,0,3.2,1.6,4
	l3.2,2.4c1.6,0.8,3.2,0.8,4-0.8l0,0c0,1.6,1.6,2.4,3.2,2.4h4c1.6,0,3.2-0.8,3.2-2.4l0,0c2.4,0.8,4,1.6,5.6,0.8l3.2-1.6
	c1.6-0.8,2.4-2.4,1.6-4l0,0c1.6,0.8,3.2,0,4-1.6l1.6-3.2c0.8-1.6,0.8-3.2-0.8-4l0,0c1.6,0,2.4-1.6,2.4-3.2v-4
	C71.2,188,69.6,186.4,68.8,185.6z"/>
<path style="fill:#4B5556;" d="M68.8,185.6L68.8,185.6c0.8-1.6,1.6-3.2,0.8-4.8l-1.6-3.2c-0.8-1.6-2.4-2.4-4-1.6l0,0
	c0.8-1.6,0-3.2-1.6-4l-3.2-1.6c-1.6-0.8-3.2-0.8-4,0.8l0,0c0-1.6-1.6-2.4-3.2-2.4h-5.6c-1.6,0-3.2,0.8-3.2,2.4l0,0
	c-0.8-0.8-3.2-1.6-4-0.8L36,172c-1.6,0.8-1.6,2.4-1.6,4l0,0L64,205.6l0,0c1.6,0.8,3.2,0,4-1.6l1.6-3.2c0.8-1.6,0.8-3.2-0.8-4l0,0
	c1.6,0,2.4-1.6,2.4-3.2v-4C71.2,188,69.6,186.4,68.8,185.6z"/>
<path style="fill:#566366;" d="M48.8,179.2c7.2,0,12.8,5.6,12.8,12v-0.8c0-7.2-5.6-12.8-12.8-12.8S36,183.2,36,190.4v0.8
	C36,184,41.6,179.2,48.8,179.2z"/>
<path style="fill:#424B4C;" d="M48.8,178.4c-7.2,0-12.8,5.6-12.8,12.8c0,4,2.4,13.6,5.6,20.8c0.8,0,1.6,0,2.4-0.8l0,0
	c0,1.6,1.6,2.4,3.2,2.4h4c1.6,0,3.2-0.8,3.2-2.4l0,0c0,0.8,0.8,0.8,2.4,0.8c3.2-7.2,4.8-16.8,4.8-20.8C61.6,184,56,178.4,48.8,178.4
	z"/>
<path style="fill:#121C1B;" d="M61.6,191.2c0,7.2-5.6,12.8-12.8,12.8S36,198.4,36,191.2s5.6-12.8,12.8-12.8S61.6,184,61.6,191.2z"/>
<path style="fill:#283538;" d="M39.2,200.8c-4.8-4.8-4.8-13.6,0-18.4c4.8-4.8,13.6-4.8,18.4,0"/>
<path style="fill:#121C1B;" d="M49.6,185.6c0,0.8,0,0.8-0.8,0.8l0,0c-0.8,0-0.8,0-0.8-0.8v-3.2c0-0.8,0-0.8,0.8-0.8l0,0
	c0.8,0,0.8,0,0.8,0.8V185.6z"/>
<path style="fill:#FF7A17;" d="M49.6,184c0,0.8,0,0.8-0.8,0.8l0,0c-0.8,0-0.8,0-0.8-0.8v-3.2c0-0.8,0-0.8,0.8-0.8l0,0
	c0.8,0,0.8,0,0.8,0.8V184z"/>
<rect x="96.8" y="189.6" style="fill:#0D915E;" width="40" height="208.8"/>
<path style="fill:#121C1B;" d="M136.8,187.2L136.8,187.2c0.8-1.6,1.6-3.2,0.8-4.8L136,180c-0.8-1.6-2.4-2.4-4-1.6l0,0
	c0.8-1.6,0-3.2-1.6-4l-3.2-2.4c-1.6-0.8-3.2-0.8-4,0.8l0,0c0-1.6-1.6-2.4-3.2-2.4h-4c-1.6,0-3.2,0.8-3.2,2.4l0,0
	c-0.8-0.8-3.2-1.6-4-0.8l-3.2,1.6c-1.6,0.8-1.6,2.4-1.6,4l0,0c-1.6-0.8-3.2,0-4,1.6l-1.6,3.2c-0.8,1.6-0.8,3.2,0.8,4l0,0
	c-1.6,0-2.4,1.6-2.4,3.2v4c0,1.6,0.8,3.2,2.4,3.2l0,0c-0.8,0.8-1.6,3.2-0.8,4l1.6,3.2c0.8,1.6,2.4,1.6,4,1.6l0,0
	c-0.8,1.6,0,3.2,1.6,4l3.2,1.6c1.6,0.8,3.2,0.8,4-0.8l0,0c0,1.6,1.6,2.4,3.2,2.4h4c1.6,0,3.2-0.8,3.2-2.4l0,0c0.8,0.8,3.2,1.6,4,0.8
	l3.2-1.6c1.6-0.8,2.4-2.4,1.6-4l0,0c1.6,0.8,3.2,0,4-1.6l1.6-3.2c0.8-1.6,0.8-3.2-0.8-4l0,0c1.6,0,2.4-1.6,2.4-3.2v-4
	C140,189.6,138.4,188,136.8,187.2z"/>
<path style="fill:#5D6466;" d="M136.8,185.6L136.8,185.6c0.8-1.6,1.6-3.2,0.8-4.8l-1.6-3.2c-0.8-1.6-2.4-2.4-4-1.6l0,0
	c0.8-1.6,0-3.2-1.6-4l-3.2-1.6c-1.6-0.8-3.2-0.8-4,0.8l0,0c0-1.6-1.6-2.4-3.2-2.4h-4c-1.6,0-3.2,0.8-3.2,2.4l0,0
	c-0.8-0.8-3.2-1.6-4-0.8l-3.2,1.6c-1.6,0.8-1.6,2.4-1.6,4l0,0c-1.6-0.8-3.2,0-4,1.6l-1.6,3.2c-0.8,1.6-0.8,3.2,0.8,4l0,0
	c-1.6,0-2.4,1.6-2.4,3.2v4c0,1.6,0.8,3.2,2.4,3.2l0,0c-0.8,0.8-1.6,3.2-0.8,4l1.6,3.2c0.8,1.6,2.4,2.4,4,1.6l0,0
	c-0.8,1.6,0,3.2,1.6,4l3.2,1.6c1.6,0.8,3.2,0.8,4-0.8l0,0c0,1.6,1.6,2.4,3.2,2.4h4c1.6,0,3.2-0.8,3.2-2.4l0,0c0.8,0.8,3.2,1.6,4,0.8
	l3.2-1.6c1.6-0.8,2.4-2.4,1.6-4l0,0c1.6,0.8,3.2,0,4-1.6l1.6-3.2c0.8-1.6,0.8-3.2-0.8-4l0,0c1.6,0,2.4-1.6,2.4-3.2v-4
	C140,188,138.4,186.4,136.8,185.6z"/>
<path style="fill:#4B5556;" d="M136.8,185.6L136.8,185.6c0.8-1.6,1.6-3.2,0.8-4.8l-1.6-3.2c-0.8-1.6-2.4-2.4-4-1.6l0,0
	c0.8-1.6,0-3.2-1.6-4l-3.2-1.6c-1.6-0.8-3.2-0.8-4,0.8l0,0c0-1.6-1.6-2.4-3.2-2.4h-4c-1.6,0-3.2,0.8-3.2,2.4l0,0
	c-0.8-0.8-3.2-1.6-4-0.8l-3.2,1.6c-1.6,0.8-1.6,2.4-1.6,4l0,0l29.6,29.6l0,0c1.6,0.8,3.2,0,4-1.6l1.6-3.2c0.8-1.6,0.8-3.2-0.8-4l0,0
	c1.6,0,2.4-1.6,2.4-3.2v-4C140,188,138.4,186.4,136.8,185.6z"/>
<path style="fill:#566366;" d="M116.8,179.2c7.2,0,12.8,5.6,12.8,12v-0.8c0-7.2-5.6-12.8-12.8-12.8s-12.8,5.6-12.8,12.8v0.8
	C104.8,184,110.4,179.2,116.8,179.2z"/>
<path style="fill:#424B4C;" d="M116.8,178.4c-7.2,0-12.8,5.6-12.8,12.8c0,4,2.4,13.6,5.6,20.8c0.8,0,1.6,0,2.4-0.8l0,0
	c0,1.6,1.6,2.4,3.2,2.4h4c1.6,0,3.2-0.8,3.2-2.4l0,0c0.8,0.8,1.6,0.8,2.4,0.8c3.2-7.2,4.8-16.8,4.8-20.8
	C130.4,184,124,178.4,116.8,178.4z"/>
<path style="fill:#121C1B;" d="M130.4,191.2c0,7.2-5.6,12.8-12.8,12.8s-12.8-5.6-12.8-12.8s5.6-12.8,12.8-12.8
	C124,178.4,130.4,184,130.4,191.2z"/>
<path style="fill:#283538;" d="M108,200.8c-4.8-4.8-4.8-13.6,0-18.4c4.8-4.8,13.6-4.8,18.4,0"/>
<path style="fill:#121C1B;" d="M117.6,185.6c0,0.8,0,0.8-0.8,0.8l0,0c-0.8,0-0.8,0-0.8-0.8v-3.2c0-0.8,0-0.8,0.8-0.8l0,0
	c0.8,0,0.8,0,0.8,0.8V185.6z"/>
<path style="fill:#FF7A17;" d="M117.6,184c0,0.8,0,0.8-0.8,0.8l0,0c-0.8,0-0.8,0-0.8-0.8v-3.2c0-0.8,0-0.8,0.8-0.8l0,0
	c0.8,0,0.8,0,0.8,0.8V184z"/>
<rect x="165.6" y="189.6" style="fill:#0D915E;" width="40" height="208.8"/>
<path style="fill:#121C1B;" d="M205.6,187.2L205.6,187.2c0.8-1.6,1.6-3.2,0.8-4.8L204,180c-0.8-1.6-2.4-2.4-4-1.6l0,0
	c0.8-1.6,0-3.2-1.6-4l-3.2-2.4c-1.6-0.8-3.2-0.8-4,0.8l0,0c0-1.6-1.6-2.4-3.2-2.4h-4c-1.6,0-3.2,0.8-3.2,2.4l0,0
	c-0.8-0.8-3.2-1.6-4-0.8l-3.2,1.6c-1.6,0.8-1.6,2.4-1.6,4l0,0c-1.6-0.8-3.2,0-4,1.6l-1.6,3.2c-0.8,1.6-0.8,3.2,0.8,4l0,0
	c-1.6,0-2.4,1.6-2.4,3.2v4c0,1.6,0.8,3.2,2.4,3.2l0,0c-0.8,0.8-1.6,3.2-0.8,4l1.6,3.2c0.8,1.6,2.4,1.6,4,1.6l0,0
	c-0.8,1.6,0,3.2,1.6,4l3.2,1.6c1.6,0.8,3.2,0.8,4-0.8l0,0c0,1.6,1.6,2.4,3.2,2.4h4c1.6,0,3.2-0.8,3.2-2.4l0,0c0.8,0.8,3.2,1.6,4,0.8
	l3.2-1.6c1.6-0.8,2.4-2.4,1.6-4l0,0c1.6,0.8,3.2,0,4-1.6l1.6-3.2c0.8-1.6,0.8-3.2-0.8-4l0,0c1.6,0,2.4-1.6,2.4-3.2v-4
	C208,189.6,207.2,188,205.6,187.2z"/>
<path style="fill:#5D6466;" d="M205.6,185.6L205.6,185.6c0.8-1.6,1.6-3.2,0.8-4.8l-2.4-2.4c-0.8-1.6-2.4-2.4-4-1.6l0,0
	c0.8-1.6,0-3.2-1.6-4l-3.2-1.6c-1.6-0.8-3.2-0.8-4,0.8l0,0c0-1.6-1.6-2.4-3.2-2.4h-4c-1.6,0-3.2,0.8-3.2,2.4l0,0
	c-0.8-0.8-3.2-1.6-4-0.8l-3.2,1.6c-1.6,0.8-1.6,2.4-1.6,4l0,0c-1.6-0.8-3.2,0-4,1.6l-1.6,3.2c-0.8,1.6-0.8,3.2,0.8,4l0,0
	c-1.6,0-2.4,1.6-2.4,3.2v4c0,1.6,0.8,3.2,2.4,3.2l0,0c-0.8,0.8-1.6,3.2-0.8,4l1.6,3.2c0.8,1.6,2.4,2.4,4,1.6l0,0
	c-0.8,1.6,0,3.2,1.6,4l3.2,1.6c1.6,0.8,3.2,0.8,4-0.8l0,0c0,1.6,1.6,2.4,3.2,2.4h4c1.6,0,3.2-0.8,3.2-2.4l0,0c0.8,0.8,3.2,1.6,4,0.8
	l3.2-1.6c1.6-0.8,2.4-2.4,1.6-4l0,0c1.6,0.8,3.2,0,4-1.6l1.6-3.2c0.8-1.6,0.8-3.2-0.8-4l0,0c1.6,0,2.4-1.6,2.4-3.2v-4
	C208,188,207.2,186.4,205.6,185.6z"/>
<path style="fill:#4B5556;" d="M205.6,185.6L205.6,185.6c0.8-1.6,1.6-3.2,0.8-4.8l-2.4-2.4c-0.8-1.6-2.4-2.4-4-1.6l0,0
	c0.8-1.6,0-3.2-1.6-4l-3.2-1.6c-1.6-0.8-3.2-0.8-4,0.8l0,0c0-1.6-1.6-2.4-3.2-2.4h-4c-1.6,0-3.2,0.8-3.2,2.4l0,0
	c-0.8-0.8-3.2-1.6-4-0.8l-3.2,1.6c-1.6,0.8-1.6,2.4-1.6,4l0,0l29.6,29.6l0,0c1.6,0.8,3.2,0,4-1.6l1.6-3.2c0.8-1.6,0.8-3.2-0.8-4l0,0
	c1.6,0,2.4-1.6,2.4-3.2v-4C208,188,207.2,186.4,205.6,185.6z"/>
<path style="fill:#566366;" d="M185.6,179.2c7.2,0,12.8,5.6,12.8,12v-0.8c0-7.2-5.6-12.8-12.8-12.8s-12.8,5.6-12.8,12.8v0.8
	C172.8,184,178.4,179.2,185.6,179.2z"/>
<path style="fill:#424B4C;" d="M185.6,178.4c-7.2,0-12.8,5.6-12.8,12.8c0,4,2.4,13.6,5.6,20.8c0.8,0,1.6,0,2.4-0.8l0,0
	c0,1.6,1.6,2.4,3.2,2.4h4c1.6,0,3.2-0.8,3.2-2.4l0,0c0.8,0.8,1.6,0.8,2.4,0.8c3.2-7.2,4.8-16.8,4.8-20.8
	C199.2,184,192.8,178.4,185.6,178.4z"/>
<path style="fill:#121C1B;" d="M199.2,191.2c0,7.2-5.6,12.8-12.8,12.8s-12.8-5.6-12.8-12.8s5.6-12.8,12.8-12.8
	C192.8,178.4,199.2,184,199.2,191.2z"/>
<path style="fill:#283538;" d="M176.8,200.8c-4.8-4.8-4.8-13.6,0-18.4c4.8-4.8,13.6-4.8,18.4,0"/>
<path style="fill:#121C1B;" d="M186.4,185.6c0,0.8,0,0.8-0.8,0.8l0,0c-0.8,0-0.8,0-0.8-0.8v-3.2c0-0.8,0-0.8,0.8-0.8l0,0
	c0.8,0,0.8,0,0.8,0.8V185.6z"/>
<path style="fill:#FF7A17;" d="M186.4,184c0,0.8,0,0.8-0.8,0.8l0,0c-0.8,0-0.8,0-0.8-0.8v-3.2c0-0.8,0-0.8,0.8-0.8l0,0
	c0.8,0,0.8,0,0.8,0.8V184z"/>
<rect x="234.4" y="189.6" style="fill:#0D915E;" width="40" height="208.8"/>
<path style="fill:#121C1B;" d="M274.4,187.2L274.4,187.2c0.8-1.6,1.6-3.2,0.8-4.8l-2.4-2.4c-0.8-1.6-2.4-2.4-4-1.6l0,0
	c0.8-1.6,0-3.2-1.6-4L264,172c-1.6-0.8-3.2-0.8-4,0.8l0,0c0-1.6-1.6-2.4-3.2-2.4h-4c-1.6,0-3.2,0.8-3.2,2.4l0,0
	c-0.8-0.8-3.2-1.6-4-0.8l-3.2,1.6c-1.6,0.8-1.6,2.4-1.6,4l0,0c-1.6-0.8-3.2,0-4,1.6l-1.6,3.2c-0.8,1.6-0.8,3.2,0.8,4l0,0
	c-1.6,0-2.4,1.6-2.4,3.2v4c0,1.6,0.8,3.2,2.4,3.2l0,0c-0.8,0.8-1.6,3.2-0.8,4l1.6,3.2c0.8,1.6,2.4,1.6,4,1.6l0,0
	c-0.8,1.6,0,3.2,1.6,4l3.2,1.6c1.6,0.8,3.2,0.8,4-0.8l0,0c0,1.6,1.6,2.4,3.2,2.4h4c1.6,0,3.2-0.8,3.2-2.4l0,0c0.8,0.8,3.2,1.6,4,0.8
	l3.2-1.6c1.6-0.8,2.4-2.4,1.6-4l0,0c1.6,0.8,3.2,0,4-1.6l1.6-3.2c0.8-1.6,0.8-3.2-0.8-4l0,0c1.6,0,2.4-1.6,2.4-3.2v-4
	C276.8,189.6,276,188,274.4,187.2z"/>
<path style="fill:#5D6466;" d="M274.4,185.6L274.4,185.6c0.8-1.6,1.6-3.2,0.8-4.8l-1.6-3.2c-0.8-1.6-2.4-2.4-4-1.6l0,0
	c0.8-1.6,0-3.2-1.6-4l-3.2-1.6c-1.6-0.8-3.2-0.8-4,0.8l0,0c0-1.6-1.6-2.4-3.2-2.4h-4c-1.6,0-3.2,0.8-3.2,2.4l0,0
	c-0.8-0.8-3.2-1.6-4-0.8l-3.2,1.6c-1.6,0.8-1.6,2.4-1.6,4l0,0c-1.6-0.8-3.2,0-4,1.6l-1.6,3.2c-0.8,1.6-0.8,3.2,0.8,4l0,0
	c-1.6,0-2.4,1.6-2.4,3.2v4c0,1.6,0.8,3.2,2.4,3.2l0,0c-0.8,0.8-1.6,3.2-0.8,4l0,4.8c0.8,1.6,2.4,2.4,4,1.6l0,0c-0.8,1.6,0,3.2,1.6,4
	l3.2,1.6c1.6,0.8,3.2,0.8,4-0.8l0,0c0,1.6,1.6,2.4,3.2,2.4h4c1.6,0,3.2-0.8,3.2-2.4l0,0c0.8,0.8,3.2,1.6,4,0.8l3.2-1.6
	c1.6-0.8,2.4-2.4,1.6-4l0,0c1.6,0.8,3.2,0,4-1.6l1.6-3.2c0.8-1.6,0.8-3.2-0.8-4l0,0c1.6,0,2.4-1.6,2.4-3.2v-4
	C276.8,188,276,186.4,274.4,185.6z"/>
<path style="fill:#4B5556;" d="M274.4,185.6L274.4,185.6c0.8-1.6,1.6-3.2,0.8-4.8l-1.6-3.2c-0.8-1.6-2.4-2.4-4-1.6l0,0
	c0.8-1.6,0-3.2-1.6-4l-3.2-1.6c-1.6-0.8-3.2-0.8-4,0.8l0,0c0-1.6-1.6-2.4-3.2-2.4h-4c-1.6,0-3.2,0.8-3.2,2.4l0,0
	c-0.8-0.8-3.2-1.6-4-0.8l-3.2,1.6c-1.6,0.8-1.6,2.4-1.6,4l0,0l29.6,29.6l0,0c1.6,0.8,3.2,0,4-1.6l1.6-3.2c0.8-1.6,0.8-3.2-0.8-4l0,0
	c1.6,0,2.4-1.6,2.4-3.2v-4C276.8,188,276,186.4,274.4,185.6z"/>
<path style="fill:#566366;" d="M254.4,179.2c7.2,0,12.8,5.6,12.8,12v-0.8c0-7.2-5.6-12.8-12.8-12.8c-7.2,0-12.8,5.6-12.8,12.8v0.8
	C241.6,184,247.2,179.2,254.4,179.2z"/>
<path style="fill:#424B4C;" d="M254.4,178.4c-7.2,0-12.8,5.6-12.8,12.8c0,4,2.4,13.6,5.6,20.8c0.8,0,1.6,0,2.4-0.8l0,0
	c0,1.6,1.6,2.4,3.2,2.4h4c1.6,0,3.2-0.8,3.2-2.4l0,0c0.8,0.8,1.6,0.8,2.4,0.8c3.2-7.2,4.8-16.8,4.8-20.8
	C267.2,184,261.6,178.4,254.4,178.4z"/>
<path style="fill:#121C1B;" d="M267.2,191.2c0,7.2-5.6,12.8-12.8,12.8c-7.2,0-12.8-5.6-12.8-12.8s5.6-12.8,12.8-12.8
	C261.6,178.4,267.2,184,267.2,191.2z"/>
<path style="fill:#283538;" d="M244.8,200.8c-4.8-4.8-4.8-13.6,0-18.4c4.8-4.8,13.6-4.8,18.4,0"/>
<path style="fill:#121C1B;" d="M255.2,185.6c0,0.8,0,0.8-0.8,0.8l0,0c-0.8,0-0.8,0-0.8-0.8v-3.2c0-0.8,0-0.8,0.8-0.8l0,0
	c0.8,0,0.8,0,0.8,0.8V185.6z"/>
<path style="fill:#FF7A17;" d="M255.2,184c0,0.8,0,0.8-0.8,0.8l0,0c-0.8,0-0.8,0-0.8-0.8v-3.2c0-0.8,0-0.8,0.8-0.8l0,0
	c0.8,0,0.8,0,0.8,0.8V184z"/>
<rect x="303.2" y="189.6" style="fill:#0D915E;" width="40" height="208.8"/>
<path style="fill:#121C1B;" d="M343.2,187.2L343.2,187.2c0.8-1.6,1.6-3.2,0.8-4.8l-2.4-2.4c-0.8-1.6-2.4-2.4-4-1.6l0,0
	c0.8-1.6,0-3.2-1.6-4l-3.2-2.4c-1.6-0.8-3.2-0.8-4,0.8l0,0c0-1.6-1.6-2.4-3.2-2.4h-4c-1.6,0-3.2,0.8-3.2,2.4l0,0
	c-2.4-0.8-4-1.6-4.8-0.8l-3.2,1.6c-1.6,0.8-1.6,2.4-1.6,4l0,0c-1.6-0.8-3.2,0-4,1.6l-1.6,3.2c-0.8,1.6-0.8,3.2,0.8,4l0,0
	c-1.6,0-2.4,1.6-2.4,3.2v4c0,1.6,0.8,3.2,2.4,3.2l0,0c-0.8,0.8-1.6,3.2-0.8,4l1.6,3.2c0.8,1.6,2.4,1.6,4,1.6l0,0
	c-0.8,1.6,0,3.2,1.6,4l3.2,1.6c1.6,0.8,3.2,0.8,4-0.8l0,0c0,1.6,1.6,2.4,3.2,2.4h4c1.6,0,3.2-0.8,3.2-2.4l0,0c0.8,0.8,3.2,1.6,4,0.8
	l3.2-1.6c1.6-0.8,2.4-2.4,1.6-4l0,0c1.6,0.8,3.2,0,4-1.6l1.6-3.2c0.8-1.6,0.8-3.2-0.8-4l0,0c1.6,0,2.4-1.6,2.4-3.2v-4
	C345.6,189.6,344.8,188,343.2,187.2z"/>
<path style="fill:#5D6466;" d="M343.2,185.6L343.2,185.6c0.8-1.6,1.6-3.2,0.8-4.8l-1.6-3.2c-0.8-1.6-2.4-2.4-4-1.6l0,0
	c0.8-1.6,0-3.2-1.6-4l-3.2-1.6c-1.6-0.8-3.2-0.8-4,0.8l0,0c0-1.6-1.6-2.4-3.2-2.4h-4c-1.6,0-3.2,0.8-3.2,2.4l0,0
	c-0.8-0.8-3.2-1.6-4-0.8L312,172c-1.6,0.8-1.6,2.4-1.6,4l0,0c-1.6-0.8-3.2,0-4,1.6l-1.6,3.2c-0.8,1.6-0.8,3.2,0.8,4l0,0
	c-1.6,0-2.4,1.6-2.4,3.2v4c0,1.6,0.8,3.2,2.4,3.2l0,0c-0.8,0.8-1.6,3.2-0.8,4l1.6,3.2c0.8,1.6,2.4,2.4,4,1.6l0,0
	c-0.8,1.6,0,3.2,1.6,4l3.2,1.6c1.6,0.8,3.2,0.8,4-0.8l0,0c0,1.6,1.6,2.4,3.2,2.4h4c1.6,0,3.2-0.8,3.2-2.4l0,0c0.8,0.8,3.2,1.6,4,0.8
	l3.2-1.6c1.6-0.8,2.4-2.4,1.6-4l0,0c1.6,0.8,3.2,0,4-1.6l1.6-3.2c0.8-1.6,0.8-3.2-0.8-4l0,0c1.6,0,2.4-1.6,2.4-3.2v-4
	C345.6,188,344.8,186.4,343.2,185.6z"/>
<path style="fill:#4B5556;" d="M343.2,185.6L343.2,185.6c0.8-1.6,1.6-3.2,0.8-4.8l-1.6-3.2c-0.8-1.6-2.4-2.4-4-1.6l0,0
	c0.8-1.6,0-3.2-1.6-4l-3.2-1.6c-1.6-0.8-3.2-0.8-4,0.8l0,0c0-1.6-1.6-2.4-3.2-2.4h-4c-1.6,0-3.2,0.8-3.2,2.4l0,0
	c-0.8-0.8-3.2-1.6-4-0.8L312,172c-1.6,0.8-1.6,2.4-1.6,4l0,0l29.6,29.6l0,0c1.6,0.8,3.2,0,4-1.6l1.6-3.2c0.8-1.6,0.8-3.2-0.8-4l0,0
	c1.6,0,2.4-1.6,2.4-3.2v-4C345.6,188,344.8,186.4,343.2,185.6z"/>
<path style="fill:#566366;" d="M323.2,179.2c7.2,0,12.8,5.6,12.8,12v-0.8c0-7.2-5.6-12.8-12.8-12.8c-7.2,0-12.8,5.6-12.8,12.8v0.8
	C310.4,184,316,179.2,323.2,179.2z"/>
<path style="fill:#424B4C;" d="M323.2,178.4c-7.2,0-12.8,5.6-12.8,12.8c0,4,2.4,13.6,5.6,20.8c0.8,0,1.6,0,2.4-0.8l0,0
	c0,1.6,1.6,2.4,3.2,2.4h4c1.6,0,3.2-0.8,3.2-2.4l0,0c0.8,0.8,1.6,0.8,2.4,0.8c3.2-7.2,4.8-16.8,4.8-20.8
	C336,184,330.4,178.4,323.2,178.4z"/>
<path style="fill:#121C1B;" d="M336,191.2c0,7.2-5.6,12.8-12.8,12.8c-7.2,0-12.8-5.6-12.8-12.8s5.6-12.8,12.8-12.8
	S336,184,336,191.2z"/>
<path style="fill:#283538;" d="M313.6,200.8c-4.8-4.8-4.8-13.6,0-18.4c4.8-4.8,13.6-4.8,18.4,0"/>
<path style="fill:#121C1B;" d="M324,185.6c0,0.8,0,0.8-0.8,0.8l0,0c-0.8,0-0.8,0-0.8-0.8v-3.2c0-0.8,0-0.8,0.8-0.8l0,0
	c0.8,0,0.8,0,0.8,0.8V185.6z"/>
<path style="fill:#FF7A17;" d="M324,184c0,0.8,0,0.8-0.8,0.8l0,0c-0.8,0-0.8,0-0.8-0.8v-3.2c0-0.8,0-0.8,0.8-0.8l0,0
	c0.8,0,0.8,0,0.8,0.8V184z"/>
<path style="fill:#0D915E;" d="M141.6,404c-3.2,0-5.6-2.4-5.6-5.6V285.6c0-3.2,2.4-5.6,5.6-5.6h89.6c3.2,0,5.6,2.4,5.6,5.6v112.8
	c0,3.2-2.4,5.6-5.6,5.6L141.6,404L141.6,404z"/>
<path style="fill:#CEEAE4;" d="M141.6,388.8c-3.2,0-5.6-2.4-5.6-5.6V270.4c0-3.2,2.4-5.6,5.6-5.6h89.6c3.2,0,5.6,2.4,5.6,5.6v112.8
	c0,3.2-2.4,5.6-5.6,5.6L141.6,388.8L141.6,388.8z"/>
<path style="fill:#9AB7AF;" d="M231.2,264.8c3.2,0,5.6,2.4,5.6,5.6v112.8c0,3.2-2.4,5.6-5.6,5.6h-89.6c-3.2,0-5.6-2.4-5.6-5.6"/>
<path style="fill:#283538;" d="M148,380.8c-2.4,0-4.8-2.4-4.8-4.8v-99.2c0-2.4,2.4-4.8,4.8-4.8h76.8c2.4,0,4.8,2.4,4.8,4.8v100
	c0,2.4-2.4,4.8-4.8,4.8H148V380.8z"/>
<path style="fill:#121C1B;" d="M224.8,272c2.4,0,4.8,2.4,4.8,4.8v100c0,2.4-2.4,4.8-4.8,4.8H148c-2.4,0-4.8-2.4-4.8-4.8"/>
<g>
	<path style="fill:#424B4C;" d="M221.6,378.4c-0.8,0-1.6-0.8-1.6-1.6V276c0-0.8,0.8-1.6,1.6-1.6l0,0c0.8,0,1.6,0.8,1.6,1.6v100.8
		C223.2,377.6,222.4,378.4,221.6,378.4L221.6,378.4z"/>
	<path style="fill:#424B4C;" d="M209.6,378.4c-0.8,0-1.6-0.8-1.6-1.6V276c0-0.8,0.8-1.6,1.6-1.6l0,0c0.8,0,1.6,0.8,1.6,1.6v100.8
		C211.2,377.6,210.4,378.4,209.6,378.4L209.6,378.4z"/>
	<path style="fill:#424B4C;" d="M198.4,378.4c-0.8,0-1.6-0.8-1.6-1.6V276c0-0.8,0.8-1.6,1.6-1.6l0,0c0.8,0,1.6,0.8,1.6,1.6v100.8
		C199.2,377.6,199.2,378.4,198.4,378.4L198.4,378.4z"/>
	<path style="fill:#424B4C;" d="M186.4,378.4c-0.8,0-1.6-0.8-1.6-1.6V276c0-0.8,0.8-1.6,1.6-1.6l0,0c0.8,0,1.6,0.8,1.6,1.6v100.8
		C188,377.6,187.2,378.4,186.4,378.4L186.4,378.4z"/>
	<path style="fill:#424B4C;" d="M174.4,378.4c-0.8,0-1.6-0.8-1.6-1.6V276c0-0.8,0.8-1.6,1.6-1.6l0,0c0.8,0,1.6,0.8,1.6,1.6v100.8
		C176,377.6,175.2,378.4,174.4,378.4L174.4,378.4z"/>
	<path style="fill:#424B4C;" d="M162.4,378.4c-0.8,0-1.6-0.8-1.6-1.6V276c0-0.8,0.8-1.6,1.6-1.6l0,0c0.8,0,1.6,0.8,1.6,1.6v100.8
		C164,377.6,163.2,378.4,162.4,378.4L162.4,378.4z"/>
	<path style="fill:#424B4C;" d="M150.4,378.4c-0.8,0-1.6-0.8-1.6-1.6V276c0-0.8,0.8-1.6,1.6-1.6l0,0c0.8,0,1.6,0.8,1.6,1.6v100.8
		C152,377.6,151.2,378.4,150.4,378.4L150.4,378.4z"/>
</g>
<path style="fill:#0D915E;" d="M194.4,244c0,4.8-4,19.2-8,19.2c-4.8,0-8-14.4-8-19.2c0-4.8,4-8,8-8S194.4,240,194.4,244z"/>
<path style="fill:#FF7A17;" d="M194.4,244c0,4.8-4,8-8,8c-4.8,0-8-4-8-8c0-4.8,4-8,8-8S194.4,240,194.4,244z"/>
<path style="fill:#E2620C;" d="M180.8,238.4c3.2-3.2,8-3.2,11.2,0s3.2,8,0,11.2"/>
<path style="fill:#0D915E;" d="M255.2,404c-3.2,0-5.6-2.4-5.6-5.6V285.6c0-3.2,2.4-5.6,5.6-5.6h89.6c3.2,0,5.6,2.4,5.6,5.6v112.8
	c0,3.2-2.4,5.6-5.6,5.6L255.2,404L255.2,404z"/>
<path style="fill:#CEEAE4;" d="M255.2,388.8c-3.2,0-5.6-2.4-5.6-5.6V270.4c0-3.2,2.4-5.6,5.6-5.6h89.6c3.2,0,5.6,2.4,5.6,5.6v112.8
	c0,3.2-2.4,5.6-5.6,5.6L255.2,388.8L255.2,388.8z"/>
<path style="fill:#9AB7AF;" d="M344.8,264.8c3.2,0,5.6,2.4,5.6,5.6v112.8c0,3.2-2.4,5.6-5.6,5.6h-89.6c-3.2,0-5.6-2.4-5.6-5.6"/>
<path style="fill:#283538;" d="M261.6,380.8c-2.4,0-4.8-2.4-4.8-4.8v-99.2c0-2.4,2.4-4.8,4.8-4.8h76.8c2.4,0,4.8,2.4,4.8,4.8v100
	c0,2.4-2.4,4.8-4.8,4.8h-76.8V380.8z"/>
<path style="fill:#121C1B;" d="M338.4,272c2.4,0,4.8,2.4,4.8,4.8v100c0,2.4-2.4,4.8-4.8,4.8h-76.8c-2.4,0-4.8-2.4-4.8-4.8"/>
<g>
	<path style="fill:#424B4C;" d="M336,378.4c-0.8,0-1.6-0.8-1.6-1.6V276c0-0.8,0.8-1.6,1.6-1.6l0,0c0.8,0,1.6,0.8,1.6,1.6v100.8
		C336.8,377.6,336.8,378.4,336,378.4L336,378.4z"/>
	<path style="fill:#424B4C;" d="M324,378.4c-0.8,0-1.6-0.8-1.6-1.6V276c0-0.8,0.8-1.6,1.6-1.6l0,0c0.8,0,1.6,0.8,1.6,1.6v100.8
		C325.6,377.6,324.8,378.4,324,378.4L324,378.4z"/>
	<path style="fill:#424B4C;" d="M312,378.4c-0.8,0-1.6-0.8-1.6-1.6V276c0-0.8,0.8-1.6,1.6-1.6l0,0c0.8,0,1.6,0.8,1.6,1.6v100.8
		C313.6,377.6,312.8,378.4,312,378.4L312,378.4z"/>
	<path style="fill:#424B4C;" d="M300,378.4c-0.8,0-1.6-0.8-1.6-1.6V276c0-0.8,0.8-1.6,1.6-1.6l0,0c0.8,0,1.6,0.8,1.6,1.6v100.8
		C301.6,377.6,300.8,378.4,300,378.4L300,378.4z"/>
	<path style="fill:#424B4C;" d="M288,378.4c-0.8,0-1.6-0.8-1.6-1.6V276c0-0.8,0.8-1.6,1.6-1.6l0,0c0.8,0,1.6,0.8,1.6,1.6v100.8
		C289.6,377.6,288.8,378.4,288,378.4L288,378.4z"/>
	<path style="fill:#424B4C;" d="M276,378.4c-0.8,0-1.6-0.8-1.6-1.6V276c0-0.8,0.8-1.6,1.6-1.6l0,0c0.8,0,1.6,0.8,1.6,1.6v100.8
		C277.6,377.6,276.8,378.4,276,378.4L276,378.4z"/>
	<path style="fill:#424B4C;" d="M264,378.4c-0.8,0-1.6-0.8-1.6-1.6V276c0-0.8,0.8-1.6,1.6-1.6l0,0c0.8,0,1.6,0.8,1.6,1.6v100.8
		C265.6,377.6,264.8,378.4,264,378.4L264,378.4z"/>
</g>
<path style="fill:#0D915E;" d="M308,244c0,4.8-4,19.2-8,19.2c-4.8,0-8-14.4-8-19.2c0-4.8,4-8,8-8S308,240,308,244z"/>
<circle style="fill:#0BD6D0;" cx="300" cy="244" r="8"/>
<path style="fill:#0DC1D3;" d="M294.4,238.4c3.2-3.2,8-3.2,11.2,0s3.2,8,0,11.2"/>
<path style="fill:#0D915E;" d="M28,404c-3.2,0-5.6-2.4-5.6-5.6V285.6c0-3.2,2.4-5.6,5.6-5.6h89.6c3.2,0,5.6,2.4,5.6,5.6v112.8
	c0,3.2-2.4,5.6-5.6,5.6L28,404L28,404z"/>
<path style="fill:#CEEAE4;" d="M28,388.8c-3.2,0-5.6-2.4-5.6-5.6V270.4c0-3.2,2.4-5.6,5.6-5.6h89.6c3.2,0,5.6,2.4,5.6,5.6v112.8
	c0,3.2-2.4,5.6-5.6,5.6L28,388.8L28,388.8z"/>
<path style="fill:#9AB7AF;" d="M116.8,264.8c3.2,0,5.6,2.4,5.6,5.6v112.8c0,3.2-2.4,5.6-5.6,5.6H28c-3.2,0-5.6-2.4-5.6-5.6"/>
<path style="fill:#283538;" d="M33.6,380.8c-2.4,0-4.8-2.4-4.8-4.8v-99.2c0-2.4,2.4-4.8,4.8-4.8h76.8c2.4,0,4.8,2.4,4.8,4.8v100
	c0,2.4-2.4,4.8-4.8,4.8H33.6V380.8z"/>
<path style="fill:#121C1B;" d="M111.2,272c2.4,0,4.8,2.4,4.8,4.8v100c0,2.4-2.4,4.8-4.8,4.8H33.6c-2.4,0-4.8-2.4-4.8-4.8"/>
<g>
	<path style="fill:#424B4C;" d="M108,378.4c-0.8,0-1.6-0.8-1.6-1.6V276c0-0.8,0.8-1.6,1.6-1.6l0,0c0.8,0,1.6,0.8,1.6,1.6v100.8
		C109.6,377.6,108.8,378.4,108,378.4L108,378.4z"/>
	<path style="fill:#424B4C;" d="M96,378.4c-0.8,0-1.6-0.8-1.6-1.6V276c0-0.8,0.8-1.6,1.6-1.6l0,0c0.8,0,1.6,0.8,1.6,1.6v100.8
		C97.6,377.6,96.8,378.4,96,378.4L96,378.4z"/>
	<path style="fill:#424B4C;" d="M84,378.4c-0.8,0-1.6-0.8-1.6-1.6V276c0-0.8,0.8-1.6,1.6-1.6l0,0c0.8,0,1.6,0.8,1.6,1.6v100.8
		C85.6,377.6,84.8,378.4,84,378.4L84,378.4z"/>
	<path style="fill:#424B4C;" d="M72,378.4c-0.8,0-1.6-0.8-1.6-1.6V276c0-0.8,0.8-1.6,1.6-1.6l0,0c0.8,0,1.6,0.8,1.6,1.6v100.8
		C73.6,377.6,73.6,378.4,72,378.4L72,378.4z"/>
	<path style="fill:#424B4C;" d="M60.8,378.4c-0.8,0-1.6-0.8-1.6-1.6V276c0-0.8,0.8-1.6,1.6-1.6l0,0c0.8,0,1.6,0.8,1.6,1.6v100.8
		C61.6,377.6,61.6,378.4,60.8,378.4L60.8,378.4z"/>
	<path style="fill:#424B4C;" d="M48.8,378.4c-0.8,0-1.6-0.8-1.6-1.6V276c0-0.8,0.8-1.6,1.6-1.6l0,0c0.8,0,1.6,0.8,1.6,1.6v100.8
		C50.4,377.6,49.6,378.4,48.8,378.4L48.8,378.4z"/>
	<path style="fill:#424B4C;" d="M36.8,378.4c-0.8,0-1.6-0.8-1.6-1.6V276c0-0.8,0.8-1.6,1.6-1.6l0,0c0.8,0,1.6,0.8,1.6,1.6v100.8
		C38.4,377.6,37.6,378.4,36.8,378.4L36.8,378.4z"/>
</g>
<path style="fill:#0D915E;" d="M80.8,244c0,4.8-3.2,19.2-8,19.2s-8-14.4-8-19.2c0-4.8,4-8,8-8S80.8,240,80.8,244z"/>
<circle style="fill:#A9F711;" cx="72" cy="244" r="8"/>
<path style="fill:#A3E00B;" d="M66.4,238.4c3.2-3.2,8-3.2,11.2,0s3.2,8,0,11.2"/>
<path style="fill:#ACC6C0;" d="M480,256c0,3.2-2.4,5.6-5.6,5.6H359.2c-3.2,0-5.6-2.4-5.6-5.6v-9.6c0-3.2,2.4-5.6,5.6-5.6h115.2
	c3.2,0,5.6,2.4,5.6,5.6L480,256L480,256z"/>
<path style="fill:#88A39C;" d="M480,245.6v9.6c0,3.2-2.4,5.6-5.6,5.6H359.2c-3.2,0-5.6-2.4-5.6-5.6v-9.6"/>
<path style="fill:#93B2AA;" d="M471.2,374.4c0,8.8-7.2,15.2-15.2,15.2h-79.2c-8.8,0-15.2-7.2-15.2-15.2v-248
	c0-8.8,7.2-15.2,15.2-15.2H456c8.8,0,15.2,7.2,15.2,15.2V374.4z"/>
<path style="fill:#B4D6CE;" d="M471.2,122.4h-108c0,1.6-0.8,2.4-0.8,4v248H472v-248C471.2,125.6,471.2,124,471.2,122.4z"/>
<path style="fill:#283538;" d="M464,358.4c0,7.2-5.6,13.6-13.6,13.6h-68c-7.2,0-13.6-5.6-13.6-13.6V143.2c0-7.2,5.6-13.6,13.6-13.6
	h68c7.2,0,13.6,5.6,13.6,13.6V358.4z"/>
<path style="fill:#121C1B;" d="M369.6,143.2c0-7.2,5.6-13.6,13.6-13.6h68c7.2,0,13.6,5.6,13.6,13.6v214.4c0,7.2-5.6,13.6-13.6,13.6"
	/>
<path style="fill:#525B5B;" d="M453.6,250.4c0,3.2-2.4,5.6-5.6,5.6h-61.6c-3.2,0-5.6-2.4-5.6-5.6l0,0c0-3.2,2.4-5.6,5.6-5.6H448
	C451.2,244.8,453.6,247.2,453.6,250.4L453.6,250.4z"/>
<path style="fill:#424B4C;" d="M453.6,250.4L453.6,250.4c0,3.2-2.4,5.6-5.6,5.6h-61.6c-3.2,0-5.6-2.4-5.6-5.6l0,0"/>
<path style="fill:#1DD868;" d="M275.2,154.4c0,2.4-1.6,4-4,4H30.4c-2.4,0-4-1.6-4-4v-36.8c0-2.4,1.6-4,4-4h240.8c2.4,0,4,1.6,4,4
	V154.4z"/>
<path style="fill:#87D8C1;" d="M275.2,150.4c0,2.4-1.6,4-4,4H30.4c-2.4,0-4-1.6-4-4v-36.8c0-2.4,1.6-4,4-4h240.8c2.4,0,4,1.6,4,4
	V150.4z"/>
<path style="fill:#71BFA7;" d="M271.2,109.6H30.4c-2.4,0-4,1.6-4,4v4.8c0-2.4,1.6-4,4-4h240.8c2.4,0,4,1.6,4,4v-4.8
	C275.2,111.2,273.6,109.6,271.2,109.6z"/>
<g>
	<path style="fill:#0D915E;" d="M345.6,119.2c0,0.8-0.8,1.6-1.6,1.6h-44.8c-0.8,0-1.6-0.8-1.6-1.6l0,0c0-0.8,0.8-1.6,1.6-1.6H344
		C344.8,117.6,345.6,118.4,345.6,119.2L345.6,119.2z"/>
	<path style="fill:#0D915E;" d="M345.6,132c0,0.8-0.8,1.6-1.6,1.6h-44.8c-0.8,0-1.6-0.8-1.6-1.6l0,0c0-0.8,0.8-1.6,1.6-1.6H344
		C344.8,130.4,345.6,131.2,345.6,132L345.6,132z"/>
	<path style="fill:#0D915E;" d="M345.6,144.8c0,0.8-0.8,1.6-1.6,1.6h-44.8c-0.8,0-1.6-0.8-1.6-1.6l0,0c0-0.8,0.8-1.6,1.6-1.6H344
		C344.8,143.2,345.6,144,345.6,144.8L345.6,144.8z"/>
	<path style="fill:#0D915E;" d="M345.6,157.6c0,0.8-0.8,1.6-1.6,1.6h-44.8c-0.8,0-1.6-0.8-1.6-1.6l0,0c0-0.8,0.8-1.6,1.6-1.6H344
		C344.8,156,345.6,156.8,345.6,157.6L345.6,157.6z"/>
</g>
<g>
</g>
<g>
</g>
<g>
</g>
<g>
</g>
<g>
</g>
<g>
</g>
<g>
</g>
<g>
</g>
<g>
</g>
<g>
</g>
<g>
</g>
<g>
</g>
<g>
</g>
<g>
</g>
<g>
</g>
</svg>
