<?xml version="1.0" encoding="iso-8859-1"?>
<!-- Generator: Adobe Illustrator 19.0.0, SVG Export Plug-In . SVG Version: 6.00 Build 0)  -->
<svg version="1.1" id="Layer_1" xmlns="http://www.w3.org/2000/svg" xmlns:xlink="http://www.w3.org/1999/xlink" x="0px" y="0px"
	 viewBox="0 0 480 480" style="enable-background:new 0 0 480 480;" xml:space="preserve">
<path style="fill:#EF0A72;" d="M448.8,77.6H31.2C13.6,77.6,0,91.2,0,108.8v96h480v-96C480,91.2,466.4,77.6,448.8,77.6z"/>
<path style="fill:#212322;" d="M480,371.2c0,17.6-6.4,31.2-24,31.2H24c-17.6,0-24-13.6-24-31.2V133.6c0-17.6,13.6-31.2,31.2-31.2
	h417.6c17.6,0,31.2,13.6,31.2,31.2L480,371.2L480,371.2z"/>
<path style="fill:#4D5150;" d="M480,357.6c0,17.6-13.6,31.2-31.2,31.2H31.2C13.6,388.8,0,375.2,0,357.6V120
	c0-17.6,13.6-31.2,31.2-31.2h417.6c17.6,0,31.2,13.6,31.2,31.2L480,357.6L480,357.6z"/>
<path style="fill:#212322;" d="M448.8,116H31.2C13.6,116,0,129.6,0,147.2v96h480v-96C480,129.6,466.4,116,448.8,116z"/>
<path style="fill:#DAE4E5;" d="M450.4,330.4c0,15.2-12,27.2-27.2,27.2H56.8c-15.2,0-27.2-12-27.2-27.2V121.6
	c0-15.2,12-27.2,27.2-27.2h366.4c15.2,0,27.2,12,27.2,27.2L450.4,330.4L450.4,330.4z"/>
<g>
	<path style="fill:#C3D0D1;" d="M37.6,102.4c-4.8,4.8-8,11.2-8,19.2v108.8h420.8V121.6c0-7.2-3.2-14.4-8-19.2
		C442.4,102.4,37.6,102.4,37.6,102.4z"/>
	<path style="fill:#C3D0D1;" d="M94.4,288.8c0,4-3.2,6.4-6.4,6.4H74.4c-4,0-6.4-3.2-6.4-6.4v-90.4c0-4,3.2-6.4,6.4-6.4H88
		c4,0,6.4,3.2,6.4,6.4V288.8z"/>
</g>
<path style="fill:#4D5150;" d="M94.4,281.6c0,4-3.2,6.4-6.4,6.4H74.4c-4,0-6.4-3.2-6.4-6.4v-90.4c0-4,3.2-6.4,6.4-6.4H88
	c4,0,6.4,3.2,6.4,6.4V281.6z"/>
<path style="fill:#353837;" d="M73.6,184h13.6c4,0,6.4,3.2,6.4,6.4v90.4c0,4-3.2,6.4-6.4,6.4H73.6"/>
<path style="fill:#212322;" d="M87.2,184c4,0,6.4,3.2,6.4,6.4v90.4c0,4-3.2,6.4-6.4,6.4"/>
<path style="fill:#C3D0D1;" d="M141.6,288.8c0,4-3.2,6.4-6.4,6.4h-13.6c-4,0-6.4-3.2-6.4-6.4v-90.4c0-4,3.2-6.4,6.4-6.4h13.6
	c4,0,6.4,3.2,6.4,6.4V288.8z"/>
<path style="fill:#4D5150;" d="M141.6,281.6c0,4-3.2,6.4-6.4,6.4h-13.6c-4,0-6.4-3.2-6.4-6.4v-90.4c0-4,3.2-6.4,6.4-6.4h13.6
	c4,0,6.4,3.2,6.4,6.4V281.6z"/>
<path style="fill:#353837;" d="M120.8,184h13.6c4,0,6.4,3.2,6.4,6.4v90.4c0,4-3.2,6.4-6.4,6.4h-13.6"/>
<path style="fill:#212322;" d="M134.4,184c4,0,6.4,3.2,6.4,6.4v90.4c0,4-3.2,6.4-6.4,6.4"/>
<path style="fill:#C3D0D1;" d="M236,288.8c0,4-3.2,6.4-6.4,6.4H216c-4,0-6.4-3.2-6.4-6.4v-90.4c0-4,3.2-6.4,6.4-6.4h13.6
	c4,0,6.4,3.2,6.4,6.4V288.8z"/>
<path style="fill:#4D5150;" d="M236,281.6c0,4-3.2,6.4-6.4,6.4H216c-4,0-6.4-3.2-6.4-6.4v-90.4c0-4,3.2-6.4,6.4-6.4h13.6
	c4,0,6.4,3.2,6.4,6.4V281.6z"/>
<path style="fill:#353837;" d="M215.2,184h13.6c4,0,6.4,3.2,6.4,6.4v90.4c0,4-3.2,6.4-6.4,6.4h-13.6"/>
<path style="fill:#212322;" d="M228.8,184c4,0,6.4,3.2,6.4,6.4v90.4c0,4-3.2,6.4-6.4,6.4"/>
<path style="fill:#C3D0D1;" d="M282.4,288.8c0,4-3.2,6.4-6.4,6.4h-13.6c-4,0-6.4-3.2-6.4-6.4v-90.4c0-4,3.2-6.4,6.4-6.4H276
	c4,0,6.4,3.2,6.4,6.4V288.8z"/>
<path style="fill:#4D5150;" d="M282.4,281.6c0,4-3.2,6.4-6.4,6.4h-13.6c-4,0-6.4-3.2-6.4-6.4v-90.4c0-4,3.2-6.4,6.4-6.4H276
	c4,0,6.4,3.2,6.4,6.4V281.6z"/>
<path style="fill:#353837;" d="M262.4,184H276c4,0,6.4,3.2,6.4,6.4v90.4c0,4-3.2,6.4-6.4,6.4h-13.6"/>
<path style="fill:#212322;" d="M276,184c4,0,6.4,3.2,6.4,6.4v90.4c0,4-3.2,6.4-6.4,6.4"/>
<path style="fill:#C3D0D1;" d="M329.6,288.8c0,4-3.2,6.4-6.4,6.4h-13.6c-4,0-6.4-3.2-6.4-6.4v-90.4c0-4,3.2-6.4,6.4-6.4h13.6
	c4,0,6.4,3.2,6.4,6.4V288.8z"/>
<path style="fill:#4D5150;" d="M329.6,281.6c0,4-3.2,6.4-6.4,6.4h-13.6c-4,0-6.4-3.2-6.4-6.4v-90.4c0-4,3.2-6.4,6.4-6.4h13.6
	c4,0,6.4,3.2,6.4,6.4V281.6z"/>
<path style="fill:#353837;" d="M309.6,184h13.6c4,0,6.4,3.2,6.4,6.4v90.4c0,4-3.2,6.4-6.4,6.4h-13.6"/>
<path style="fill:#212322;" d="M323.2,184c4,0,6.4,3.2,6.4,6.4v90.4c0,4-3.2,6.4-6.4,6.4"/>
<path style="fill:#C3D0D1;" d="M424,288.8c0,4-3.2,6.4-6.4,6.4H404c-4,0-6.4-3.2-6.4-6.4v-90.4c0-4,3.2-6.4,6.4-6.4h13.6
	c4,0,6.4,3.2,6.4,6.4V288.8z"/>
<path style="fill:#4D5150;" d="M424,281.6c0,4-3.2,6.4-6.4,6.4H404c-4,0-6.4-3.2-6.4-6.4v-90.4c0-4,3.2-6.4,6.4-6.4h13.6
	c4,0,6.4,3.2,6.4,6.4V281.6z"/>
<path style="fill:#353837;" d="M404,184h13.6c4,0,6.4,3.2,6.4,6.4v90.4c0,4-3.2,6.4-6.4,6.4H404"/>
<path style="fill:#212322;" d="M417.6,184c4,0,6.4,3.2,6.4,6.4v90.4c0,4-3.2,6.4-6.4,6.4"/>
<path style="fill:#D8095E;" d="M448.8,88.8H31.2C13.6,88.8,0,102.4,0,120v96h480v-96C480,102.4,466.4,88.8,448.8,88.8z"/>
<path style="fill:#CC055F;" d="M480,216v-96c0-17.6-13.6-31.2-31.2-31.2H31.2C13.6,88.8,0,102.4,0,120"/>
<path style="fill:#566366;" d="M63.2,127.2c16.8,0,30.4,12.8,32,29.6c0-0.8,0-1.6,0-2.4c0-17.6-14.4-32-32-32s-32,14.4-32,32
	c0,0.8,0,1.6,0,2.4C32,140,46.4,127.2,63.2,127.2z"/>
<path style="fill:#A50253;" d="M95.2,156.8c0-17.6-14.4-32-32-32s-32,14.4-32,32c0,8,3.2,38.4,8,59.2h47.2
	C92,195.2,95.2,164.8,95.2,156.8z"/>
<circle style="fill:#121C1B;" cx="63.2" cy="156.8" r="32"/>
<path style="fill:#283538;" d="M40,179.2c-12.8-12.8-12.8-32.8,0-44.8s32.8-12.8,44.8,0"/>
<path style="fill:#121C1B;" d="M64.8,142.4c0,0.8-0.8,1.6-1.6,1.6l0,0c-0.8,0-1.6-0.8-1.6-1.6v-7.2c0-0.8,0.8-1.6,1.6-1.6l0,0
	c0.8,0,1.6,0.8,1.6,1.6V142.4z"/>
<path style="fill:#EA398A;" d="M64.8,139.2c0,0.8-0.8,1.6-1.6,1.6l0,0c-0.8,0-1.6-0.8-1.6-1.6V132c0-0.8,0.8-1.6,1.6-1.6l0,0
	c0.8,0,1.6,0.8,1.6,1.6V139.2z"/>
<path style="fill:#566366;" d="M140.8,127.2c16.8,0,30.4,12.8,32,29.6c0-0.8,0-1.6,0-2.4c0-17.6-14.4-32-32-32s-32,14.4-32,32
	c0,0.8,0,1.6,0,2.4C110.4,140,124,127.2,140.8,127.2z"/>
<path style="fill:#A50253;" d="M172.8,156.8c0-17.6-14.4-32-32-32s-32,14.4-32,32c0,8,3.2,38.4,8,59.2H164
	C169.6,195.2,172.8,164.8,172.8,156.8z"/>
<circle style="fill:#121C1B;" cx="140.8" cy="156.8" r="32"/>
<path style="fill:#283538;" d="M118.4,179.2c-12.8-12.8-12.8-32.8,0-44.8s32.8-12.8,44.8,0"/>
<path style="fill:#121C1B;" d="M143.2,142.4c0,0.8-0.8,1.6-1.6,1.6l0,0c-0.8,0-1.6-0.8-1.6-1.6v-7.2c0-0.8,0.8-1.6,1.6-1.6l0,0
	c0.8,0,1.6,0.8,1.6,1.6V142.4z"/>
<path style="fill:#EA398A;" d="M143.2,139.2c0,0.8-0.8,1.6-1.6,1.6l0,0c-0.8,0-1.6-0.8-1.6-1.6V132c0-0.8,0.8-1.6,1.6-1.6l0,0
	c0.8,0,1.6,0.8,1.6,1.6V139.2z"/>
<path style="fill:#649B92;" d="M326.4,141.6c0,7.2-5.6,12.8-12.8,12.8h-91.2c-7.2,0-12.8-5.6-12.8-12.8l0,0
	c0-7.2,5.6-12.8,12.8-12.8h91.2C320.8,128.8,326.4,134.4,326.4,141.6L326.4,141.6z"/>
<path style="fill:#7DBCB3;" d="M313.6,133.6h-91.2c-6.4,0-11.2,4-12,10.4c0.8,5.6,6.4,10.4,12,10.4h91.2c6.4,0,11.2-4,12-10.4
	C324.8,137.6,320,133.6,313.6,133.6z"/>
<ellipse style="fill:#B7085F;" cx="404" cy="153.6" rx="11.2" ry="48.8"/>
<path style="fill:#930C50;" d="M407.2,208.8c0,1.6-0.8,2.4-2.4,2.4h-20c-1.6,0-2.4-0.8-2.4-2.4V98.4c0-1.6,0.8-2.4,2.4-2.4h20
	c1.6,0,2.4,0.8,2.4,2.4V208.8z"/>
<path style="fill:#66083C;" d="M407.2,204c0,1.6-0.8,2.4-2.4,2.4h-20c-1.6,0-2.4-0.8-2.4-2.4V103.2c0-1.6,0.8-2.4,2.4-2.4h20
	c1.6,0,2.4,0.8,2.4,2.4V204z"/>
<path style="fill:#465456;" d="M407.2,200.8c0,1.6-0.8,2.4-2.4,2.4h-20c-1.6,0-2.4-0.8-2.4-2.4v-94.4c0-1.6,0.8-2.4,2.4-2.4h20
	c1.6,0,2.4,0.8,2.4,2.4V200.8z"/>
<rect x="386.4" y="104" style="fill:#283538;" width="16" height="100"/>
<g>
	<rect x="386.4" y="107.2" style="fill:#465456;" width="17.6" height="1.6"/>
	<rect x="386.4" y="116" style="fill:#465456;" width="17.6" height="1.6"/>
	<rect x="386.4" y="125.6" style="fill:#465456;" width="17.6" height="1.6"/>
	<rect x="386.4" y="135.2" style="fill:#465456;" width="17.6" height="1.6"/>
	<rect x="386.4" y="144" style="fill:#465456;" width="17.6" height="1.6"/>
	<rect x="386.4" y="153.6" style="fill:#465456;" width="17.6" height="1.6"/>
	<rect x="386.4" y="162.4" style="fill:#465456;" width="17.6" height="1.6"/>
	<rect x="386.4" y="172" style="fill:#465456;" width="17.6" height="1.6"/>
	<rect x="386.4" y="180.8" style="fill:#465456;" width="17.6" height="1.6"/>
	<rect x="386.4" y="190.4" style="fill:#465456;" width="17.6" height="1.6"/>
	<rect x="386.4" y="200" style="fill:#465456;" width="17.6" height="1.6"/>
</g>
<ellipse style="fill:#B7085F;" cx="446.4" cy="153.6" rx="11.2" ry="48.8"/>
<path style="fill:#930C50;" d="M449.6,208.8c0,1.6-0.8,2.4-2.4,2.4h-20c-1.6,0-2.4-0.8-2.4-2.4V98.4c0-1.6,0.8-2.4,2.4-2.4h20
	c1.6,0,2.4,0.8,2.4,2.4V208.8z"/>
<path style="fill:#66083C;" d="M449.6,204c0,1.6-0.8,2.4-2.4,2.4h-20c-1.6,0-2.4-0.8-2.4-2.4V103.2c0-1.6,0.8-2.4,2.4-2.4h20
	c1.6,0,2.4,0.8,2.4,2.4V204z"/>
<path style="fill:#465456;" d="M449.6,200.8c0,1.6-0.8,2.4-2.4,2.4h-20c-1.6,0-2.4-0.8-2.4-2.4v-94.4c0-1.6,0.8-2.4,2.4-2.4h20
	c1.6,0,2.4,0.8,2.4,2.4V200.8z"/>
<rect x="429.6" y="104" style="fill:#283538;" width="16" height="100"/>
<g>
	<rect x="428.8" y="107.2" style="fill:#465456;" width="17.6" height="1.6"/>
	<rect x="428.8" y="116" style="fill:#465456;" width="17.6" height="1.6"/>
	<rect x="428.8" y="125.6" style="fill:#465456;" width="17.6" height="1.6"/>
	<rect x="428.8" y="135.2" style="fill:#465456;" width="17.6" height="1.6"/>
	<rect x="428.8" y="144" style="fill:#465456;" width="17.6" height="1.6"/>
	<rect x="428.8" y="153.6" style="fill:#465456;" width="17.6" height="1.6"/>
	<rect x="428.8" y="162.4" style="fill:#465456;" width="17.6" height="1.6"/>
	<rect x="428.8" y="172" style="fill:#465456;" width="17.6" height="1.6"/>
	<rect x="428.8" y="180.8" style="fill:#465456;" width="17.6" height="1.6"/>
	<rect x="428.8" y="190.4" style="fill:#465456;" width="17.6" height="1.6"/>
	<rect x="428.8" y="200" style="fill:#465456;" width="17.6" height="1.6"/>
</g>
<path style="fill:#A50253;" d="M222.4,183.2c0,1.6-1.6,3.2-3.2,3.2h-6.4c-1.6,0-3.2-1.6-3.2-3.2v-6.4c0-1.6,1.6-3.2,3.2-3.2h6.4
	c1.6,0,3.2,1.6,3.2,3.2V183.2z"/>
<path style="fill:#FF7A17;" d="M222.4,180c0,1.6-1.6,3.2-3.2,3.2h-6.4c-1.6,0-3.2-1.6-3.2-3.2v-6.4c0-1.6,1.6-3.2,3.2-3.2h6.4
	c1.6,0,3.2,1.6,3.2,3.2V180z"/>
<path style="fill:#FF971A;" d="M213.6,170.4c-1.6,0-3.2,1.6-3.2,3.2v6.4c0,0,0,0,0,0.8c0,0,0,0,0.8,0h6.4c1.6,0,3.2-1.6,3.2-3.2
	v-6.4c0,0,0,0,0-0.8c0,0,0,0-0.8,0H213.6z"/>
<path style="fill:#A50253;" d="M249.6,183.2c0,1.6-1.6,3.2-3.2,3.2H240c-1.6,0-3.2-1.6-3.2-3.2v-6.4c0-1.6,1.6-3.2,3.2-3.2h6.4
	c1.6,0,3.2,1.6,3.2,3.2V183.2z"/>
<path style="fill:#FF7A17;" d="M249.6,180c0,1.6-1.6,3.2-3.2,3.2H240c-1.6,0-3.2-1.6-3.2-3.2v-6.4c0-1.6,1.6-3.2,3.2-3.2h6.4
	c1.6,0,3.2,1.6,3.2,3.2V180z"/>
<path style="fill:#FF971A;" d="M240,170.4c-1.6,0-3.2,1.6-3.2,3.2v6.4c0,0,0,0,0,0.8c0,0,0,0,0.8,0h6.4c1.6,0,3.2-1.6,3.2-3.2v-6.4
	c0,0,0,0,0-0.8c0,0,0,0-0.8,0H240z"/>
<path style="fill:#A50253;" d="M276,183.2c0,1.6-1.6,3.2-3.2,3.2h-6.4c-1.6,0-3.2-1.6-3.2-3.2v-6.4c0-1.6,1.6-3.2,3.2-3.2h6.4
	c1.6,0,3.2,1.6,3.2,3.2V183.2z"/>
<path style="fill:#FF7A17;" d="M276,180c0,1.6-1.6,3.2-3.2,3.2h-6.4c-1.6,0-3.2-1.6-3.2-3.2v-6.4c0-1.6,1.6-3.2,3.2-3.2h6.4
	c1.6,0,3.2,1.6,3.2,3.2V180z"/>
<path style="fill:#FF971A;" d="M266.4,170.4c-1.6,0-3.2,1.6-3.2,3.2v6.4c0,0,0,0,0,0.8c0,0,0,0,0.8,0h6.4c1.6,0,3.2-1.6,3.2-3.2
	v-6.4c0,0,0,0,0-0.8c0,0,0,0-0.8,0H266.4z"/>
<path style="fill:#A50253;" d="M302.4,183.2c0,1.6-1.6,3.2-3.2,3.2h-6.4c-1.6,0-3.2-1.6-3.2-3.2v-6.4c0-1.6,1.6-3.2,3.2-3.2h6.4
	c1.6,0,3.2,1.6,3.2,3.2V183.2z"/>
<path style="fill:#FF7A17;" d="M302.4,180c0,1.6-1.6,3.2-3.2,3.2h-6.4c-1.6,0-3.2-1.6-3.2-3.2v-6.4c0-1.6,1.6-3.2,3.2-3.2h6.4
	c1.6,0,3.2,1.6,3.2,3.2V180z"/>
<path style="fill:#FF971A;" d="M292.8,170.4c-1.6,0-3.2,1.6-3.2,3.2v6.4c0,0,0,0,0,0.8c0,0,0,0,0.8,0h5.6c1.6,0,3.2-1.6,3.2-3.2
	v-6.4c0,0,0,0,0-0.8c0,0,0,0-0.8,0H292.8z"/>
<path style="fill:#A50253;" d="M328.8,183.2c0,1.6-1.6,3.2-3.2,3.2h-6.4c-1.6,0-3.2-1.6-3.2-3.2v-6.4c0-1.6,1.6-3.2,3.2-3.2h6.4
	c1.6,0,3.2,1.6,3.2,3.2V183.2z"/>
<path style="fill:#FF7A17;" d="M328.8,180c0,1.6-1.6,3.2-3.2,3.2h-6.4c-1.6,0-3.2-1.6-3.2-3.2v-6.4c0-1.6,1.6-3.2,3.2-3.2h6.4
	c1.6,0,3.2,1.6,3.2,3.2V180z"/>
<path style="fill:#FF971A;" d="M319.2,170.4c-1.6,0-3.2,1.6-3.2,3.2v6.4c0,0,0,0,0,0.8c0,0,0,0,0.8,0h6.4c1.6,0,3.2-1.6,3.2-3.2
	v-6.4c0,0,0,0,0-0.8c0,0,0,0-0.8,0H319.2z"/>
<path style="fill:#EF0A72;" d="M480,215.2c0,2.4-1.6,4-4,4H4c-2.4,0-4-1.6-4-4l0,0c0-2.4,1.6-4,4-4h471.2
	C478.4,210.4,480,212.8,480,215.2L480,215.2z"/>
<g>
</g>
<g>
</g>
<g>
</g>
<g>
</g>
<g>
</g>
<g>
</g>
<g>
</g>
<g>
</g>
<g>
</g>
<g>
</g>
<g>
</g>
<g>
</g>
<g>
</g>
<g>
</g>
<g>
</g>
</svg>
