<?xml version="1.0" encoding="iso-8859-1"?>
<!-- Generator: Adobe Illustrator 19.0.0, SVG Export Plug-In . SVG Version: 6.00 Build 0)  -->
<svg version="1.1" id="Layer_1" xmlns="http://www.w3.org/2000/svg" xmlns:xlink="http://www.w3.org/1999/xlink" x="0px" y="0px"
	 viewBox="0 0 476.8 476.8" style="enable-background:new 0 0 476.8 476.8;" xml:space="preserve">
<path style="fill:#3F4A4C;" d="M470.4,446.4c0,16.8-13.6,30.4-30.4,30.4H36.8c-16.8,0-30.4-13.6-30.4-30.4v-416
	C6.4,13.6,20,0,36.8,0H440c16.8,0,30.4,13.6,30.4,30.4V446.4z"/>
<path style="fill:#293233;" d="M6.4,30.4C6.4,13.6,20,0,36.8,0H440c16.8,0,30.4,13.6,30.4,30.4v416c0,16.8-13.6,30.4-30.4,30.4"/>
<path style="fill:#B2CCCA;" d="M433.6,281.6c0,16.8-13.6,29.6-29.6,29.6H72.8c-16.8,0-29.6-13.6-29.6-29.6V64
	c0-16.8,13.6-29.6,29.6-29.6H404c16.8,0,29.6,13.6,29.6,29.6V281.6z"/>
<path style="fill:#9AB7B4;" d="M404,34.4H72.8C56,34.4,43.2,48,43.2,64v20c0-16.8,13.6-29.6,29.6-29.6H404
	c16.8,0,29.6,13.6,29.6,29.6V64C433.6,47.2,420.8,34.4,404,34.4z"/>
<path style="fill:#4D5556;" d="M122.4,427.2c0,12.8-10.4,23.2-23.2,23.2h-28C58.4,450.4,48,440,48,427.2v-28
	c0-12.8,10.4-23.2,23.2-23.2h28c12.8,0,23.2,10.4,23.2,23.2V427.2z"/>
<path style="fill:#FF7A17;" d="M122.4,407.2c0,12.8-10.4,23.2-23.2,23.2h-28C58.4,430.4,48,420,48,407.2v-28
	c0-12.8,10.4-23.2,23.2-23.2h28c12.8,0,23.2,10.4,23.2,23.2V407.2z"/>
<path style="fill:#F74D19;" d="M71.2,356h28c12.8,0,23.2,10.4,23.2,23.2v28c0,12.8-10.4,23.2-23.2,23.2"/>
<path style="fill:#4D5556;" d="M224.8,427.2c0,12.8-10.4,23.2-23.2,23.2h-28c-12.8,0-23.2-10.4-23.2-23.2v-28
	c0-12.8,10.4-23.2,23.2-23.2h28c12.8,0,23.2,10.4,23.2,23.2V427.2z"/>
<path style="fill:#6E7777;" d="M224.8,407.2c0,12.8-10.4,23.2-23.2,23.2h-28c-12.8,0-23.2-10.4-23.2-23.2v-28
	c0-12.8,10.4-23.2,23.2-23.2h28c12.8,0,23.2,10.4,23.2,23.2V407.2z"/>
<path style="fill:#5B6666;" d="M173.6,356h28c12.8,0,23.2,10.4,23.2,23.2v28c0,12.8-10.4,23.2-23.2,23.2"/>
<path style="fill:#4D5556;" d="M327.2,427.2c0,12.8-10.4,23.2-23.2,23.2h-28c-12.8,0-23.2-10.4-23.2-23.2v-28
	c0-12.8,10.4-23.2,23.2-23.2h28c12.8,0,23.2,10.4,23.2,23.2V427.2z"/>
<path style="fill:#6E7777;" d="M327.2,407.2c0,12.8-10.4,23.2-23.2,23.2h-28c-12.8,0-23.2-10.4-23.2-23.2v-28
	c0-12.8,10.4-23.2,23.2-23.2h28c12.8,0,23.2,10.4,23.2,23.2V407.2z"/>
<path style="fill:#5B6666;" d="M276,356h28c12.8,0,23.2,10.4,23.2,23.2v28c0,12.8-10.4,23.2-23.2,23.2"/>
<path style="fill:#4D5556;" d="M429.6,427.2c0,12.8-10.4,23.2-23.2,23.2h-28c-12.8,0-23.2-10.4-23.2-23.2v-28
	c0-12.8,10.4-23.2,23.2-23.2h28c12.8,0,23.2,10.4,23.2,23.2V427.2z"/>
<path style="fill:#6E7777;" d="M429.6,407.2c0,12.8-10.4,23.2-23.2,23.2h-28c-12.8,0-23.2-10.4-23.2-23.2v-28
	c0-12.8,10.4-23.2,23.2-23.2h28c12.8,0,23.2,10.4,23.2,23.2V407.2z"/>
<g>
	<path style="fill:#5B6666;" d="M378.4,356h28c12.8,0,23.2,10.4,23.2,23.2v28c0,12.8-10.4,23.2-23.2,23.2"/>
	<path style="fill:#5B6666;" d="M395.2,236.8c0,16.8-13.6,29.6-29.6,29.6H112c-16.8,0-29.6-13.6-29.6-29.6v-128
		C82.4,92,96,79.2,112,79.2h253.6c16.8,0,29.6,13.6,29.6,29.6L395.2,236.8L395.2,236.8z"/>
</g>
<path style="fill:#4F5959;" d="M364.8,79.2H112c-16.8,0-29.6,13.6-29.6,29.6v29.6c0-16.8,13.6-29.6,29.6-29.6h253.6
	c16.8,0,29.6,13.6,29.6,29.6v-29.6C395.2,92,381.6,79.2,364.8,79.2z"/>
<g>
	<circle style="fill:#3F4A4C;" cx="155.2" cy="172.8" r="14.4"/>
	<circle style="fill:#3F4A4C;" cx="321.6" cy="172.8" r="14.4"/>
</g>
<path style="fill:#797F7F;" d="M267.2,172.8c0,4.8-4,9.6-9.6,9.6h-40c-4.8,0-9.6-4-9.6-9.6l0,0c0-4.8,4-9.6,9.6-9.6h40
	C263.2,163.2,267.2,168,267.2,172.8L267.2,172.8z"/>
<g>
</g>
<g>
</g>
<g>
</g>
<g>
</g>
<g>
</g>
<g>
</g>
<g>
</g>
<g>
</g>
<g>
</g>
<g>
</g>
<g>
</g>
<g>
</g>
<g>
</g>
<g>
</g>
<g>
</g>
</svg>
